solid debout droit
facet normal 1.0 0.0 0.0
  outer loop
    vertex 1.9999999999999962 9.600000000000001 0.35
    vertex 1.9999999999999962 0.0 150.1125737054715
    vertex 1.9999999999999962 0.0 0.35
  endloop
endfacet
facet normal 1.0 0.0 0.0
  outer loop
    vertex 1.9999999999999962 0.0 150.1125737054715
    vertex 1.9999999999999962 9.600000000000001 0.35
    vertex 1.9999999999999962 9.600000000000001 150.1125737054715
  endloop
endfacet
facet normal 0.0 -1.0 0.0
  outer loop
    vertex 41.99999999999999 9.600000000000001 150.1125737054715
    vertex 1.9999999999999962 9.600000000000001 0.35
    vertex 41.99999999999999 9.600000000000001 0.35
  endloop
endfacet
facet normal 0.0 -1.0 0.0
  outer loop
    vertex 1.9999999999999962 9.600000000000001 0.35
    vertex 41.99999999999999 9.600000000000001 150.1125737054715
    vertex 1.9999999999999962 9.600000000000001 150.1125737054715
  endloop
endfacet
facet normal -1.0 0.0 0.0
  outer loop
    vertex 41.99999999999999 9.600000000000001 150.1125737054715
    vertex 41.99999999999999 0.0 0.35
    vertex 41.99999999999999 0.0 150.1125737054715
  endloop
endfacet
facet normal -1.0 0.0 0.0
  outer loop
    vertex 41.99999999999999 0.0 0.35
    vertex 41.99999999999999 9.600000000000001 150.1125737054715
    vertex 41.99999999999999 9.600000000000001 0.35
  endloop
endfacet
facet normal 0.0 1.0 0.0
  outer loop
    vertex -1.5999999999999999 17.4 11.3
    vertex 45.599999999999994 17.4 0.35
    vertex -1.5999999999999999 17.4 0.35
  endloop
endfacet
facet normal 0.0 1.0 0.0
  outer loop
    vertex 45.599999999999994 17.4 0.35
    vertex -1.5999999999999999 17.4 11.3
    vertex 45.599999999999994 17.4 11.3
  endloop
endfacet
facet normal 0.0 -1.0 0.0
  outer loop
    vertex 1.9999999999999962 0.0 0.35
    vertex -0.39999999999999997 0.0 20.85916211756247
    vertex -1.5999999999999999 0.0 0.35
  endloop
endfacet
facet normal 0.0 -1.0 0.0
  outer loop
    vertex -0.39999999999999997 0.0 20.85916211756247
    vertex 1.9999999999999962 0.0 0.35
    vertex 1.9999999999999962 0.0 150.1125737054715
  endloop
endfacet
facet normal 0.0 -1.0 0.0
  outer loop
    vertex -0.39999999999999997 0.0 20.85916211756247
    vertex 1.9999999999999962 0.0 150.1125737054715
    vertex -0.39999999999999997 0.0 150.1125737054715
  endloop
endfacet
facet normal 0.0 -1.0 0.0
  outer loop
    vertex -1.5999999999999999 0.0 20.85916211756247
    vertex -1.5999999999999999 0.0 0.35
    vertex -0.39999999999999997 0.0 20.85916211756247
  endloop
endfacet
facet normal 0.0 -1.0 0.0
  outer loop
    vertex 45.599999999999994 0.0 20.85916211756247
    vertex 41.99999999999999 0.0 0.35
    vertex 45.599999999999994 0.0 0.35
  endloop
endfacet
facet normal 0.0 -1.0 0.0
  outer loop
    vertex 41.99999999999999 0.0 0.35
    vertex 45.599999999999994 0.0 20.85916211756247
    vertex 44.4 0.0 20.85916211756247
  endloop
endfacet
facet normal 0.0 -1.0 0.0
  outer loop
    vertex 41.99999999999999 0.0 0.35
    vertex 44.4 0.0 20.85916211756247
    vertex 41.99999999999999 0.0 150.1125737054715
  endloop
endfacet
facet normal 0.0 -1.0 0.0
  outer loop
    vertex 41.99999999999999 0.0 150.1125737054715
    vertex 44.4 0.0 20.85916211756247
    vertex 44.4 0.0 150.1125737054715
  endloop
endfacet
facet normal 1.0 0.0 0.0
  outer loop
    vertex 38.99999999999999 14.299257428722076 150.3779884589323
    vertex 38.99999999999999 12.0 150.1125737054715
    vertex 38.99999999999999 12.0 145.1125737054715
  endloop
endfacet
facet normal 1.0 0.0 0.0
  outer loop
    vertex 38.99999999999999 12.0 150.1125737054715
    vertex 38.99999999999999 14.299257428722076 150.3779884589323
    vertex 38.99999999999999 12.0 164.11257370547153
  endloop
endfacet
facet normal 1.0 0.0 0.0
  outer loop
    vertex 38.99999999999999 12.0 164.11257370547153
    vertex 38.99999999999999 14.299257428722076 150.3779884589323
    vertex 38.99999999999999 14.299257428722076 162.61798845893227
  endloop
endfacet
facet normal 1.0 0.0 0.0
  outer loop
    vertex 38.99999999999999 12.0 164.11257370547153
    vertex 38.99999999999999 14.299257428722076 162.61798845893227
    vertex 38.99999999999999 15.29 164.11257370547153
  endloop
endfacet
facet normal 1.0 0.0 0.0
  outer loop
    vertex 38.99999999999999 15.29 164.11257370547153
    vertex 38.99999999999999 14.299257428722076 162.61798845893227
    vertex 38.99999999999999 14.499999999999998 162.6125737054715
  endloop
endfacet
facet normal 1.0 0.0 0.0
  outer loop
    vertex 38.99999999999999 15.29 164.11257370547153
    vertex 38.99999999999999 14.499999999999998 162.6125737054715
    vertex 38.99999999999999 15.29 162.6125737054715
  endloop
endfacet
facet normal 0.0 0.0 1.0
  outer loop
    vertex 44.4 0.0 150.1125737054715
    vertex 41.99999999999999 9.600000000000001 150.1125737054715
    vertex 41.99999999999999 0.0 150.1125737054715
  endloop
endfacet
facet normal 0.0 0.0 1.0
  outer loop
    vertex 1.9999999999999962 0.0 150.1125737054715
    vertex -0.39999999999999997 12.0 150.1125737054715
    vertex -0.39999999999999997 0.0 150.1125737054715
  endloop
endfacet
facet normal 0.0 0.0 1.0
  outer loop
    vertex -0.39999999999999997 12.0 150.1125737054715
    vertex 1.9999999999999962 0.0 150.1125737054715
    vertex 1.9999999999999962 9.600000000000001 150.1125737054715
  endloop
endfacet
facet normal 0.0 0.0 1.0
  outer loop
    vertex -0.39999999999999997 12.0 150.1125737054715
    vertex 1.9999999999999962 9.600000000000001 150.1125737054715
    vertex 5.000000000000001 12.0 150.1125737054715
  endloop
endfacet
facet normal 0.0 0.0 1.0
  outer loop
    vertex 5.000000000000001 12.0 150.1125737054715
    vertex 1.9999999999999962 9.600000000000001 150.1125737054715
    vertex 41.99999999999999 9.600000000000001 150.1125737054715
  endloop
endfacet
facet normal 0.0 0.0 1.0
  outer loop
    vertex 5.000000000000001 12.0 150.1125737054715
    vertex 41.99999999999999 9.600000000000001 150.1125737054715
    vertex 38.99999999999999 12.0 150.1125737054715
  endloop
endfacet
facet normal 0.0 0.0 1.0
  outer loop
    vertex 38.99999999999999 12.0 150.1125737054715
    vertex 41.99999999999999 9.600000000000001 150.1125737054715
    vertex 44.4 12.0 150.1125737054715
  endloop
endfacet
facet normal 0.0 0.0 1.0
  outer loop
    vertex 44.4 12.0 150.1125737054715
    vertex 41.99999999999999 9.600000000000001 150.1125737054715
    vertex 44.4 0.0 150.1125737054715
  endloop
endfacet
facet normal -1.0 0.0 0.0
  outer loop
    vertex -0.39999999999999997 12.0 150.1125737054715
    vertex -0.39999999999999997 0.0 20.85916211756247
    vertex -0.39999999999999997 0.0 150.1125737054715
  endloop
endfacet
facet normal -1.0 0.0 0.0
  outer loop
    vertex -0.39999999999999997 0.0 20.85916211756247
    vertex -0.39999999999999997 12.0 150.1125737054715
    vertex -0.39999999999999997 12.0 20.859162117562473
  endloop
endfacet
facet normal 0.0 1.0 0.0
  outer loop
    vertex -1.5999999999999999 12.0 20.859162117562473
    vertex 4.000000000000003 12.0 11.3
    vertex -1.5999999999999999 12.0 11.3
  endloop
endfacet
facet normal 0.0 1.0 0.0
  outer loop
    vertex 4.000000000000003 12.0 11.3
    vertex -1.5999999999999999 12.0 20.859162117562473
    vertex 39.999999999999986 12.0 11.3
  endloop
endfacet
facet normal 0.0 1.0 0.0
  outer loop
    vertex 39.999999999999986 12.0 11.3
    vertex -1.5999999999999999 12.0 20.859162117562473
    vertex 45.599999999999994 12.0 11.3
  endloop
endfacet
facet normal 0.0 1.0 0.0
  outer loop
    vertex 45.599999999999994 12.0 11.3
    vertex -1.5999999999999999 12.0 20.859162117562473
    vertex 45.599999999999994 12.0 20.859162117562473
  endloop
endfacet
facet normal 0.0 1.0 0.0
  outer loop
    vertex 45.599999999999994 12.0 20.859162117562473
    vertex -1.5999999999999999 12.0 20.859162117562473
    vertex -0.39999999999999997 12.0 20.859162117562473
  endloop
endfacet
facet normal 0.0 1.0 0.0
  outer loop
    vertex 45.599999999999994 12.0 20.859162117562473
    vertex -0.39999999999999997 12.0 20.859162117562473
    vertex 44.4 12.0 20.859162117562473
  endloop
endfacet
facet normal 0.0 1.0 0.0
  outer loop
    vertex 4.000000000000003 12.0 11.3
    vertex 39.999999999999986 12.0 0.0
    vertex 4.000000000000003 12.0 0.0
  endloop
endfacet
facet normal 0.0 1.0 0.0
  outer loop
    vertex 39.999999999999986 12.0 0.0
    vertex 4.000000000000003 12.0 11.3
    vertex 39.999999999999986 12.0 11.3
  endloop
endfacet
facet normal 0.0 1.0 0.0
  outer loop
    vertex -0.39999999999999997 12.0 150.1125737054715
    vertex 44.4 12.0 20.859162117562473
    vertex -0.39999999999999997 12.0 20.859162117562473
  endloop
endfacet
facet normal 0.0 1.0 0.0
  outer loop
    vertex 44.4 12.0 20.859162117562473
    vertex -0.39999999999999997 12.0 150.1125737054715
    vertex 5.000000000000002 12.0 145.1125737054715
  endloop
endfacet
facet normal 0.0 1.0 0.0
  outer loop
    vertex 5.000000000000002 12.0 145.1125737054715
    vertex -0.39999999999999997 12.0 150.1125737054715
    vertex 5.000000000000001 12.0 150.1125737054715
  endloop
endfacet
facet normal 0.0 1.0 0.0
  outer loop
    vertex 44.4 12.0 20.859162117562473
    vertex 38.99999999999999 12.0 145.1125737054715
    vertex 44.4 12.0 150.1125737054715
  endloop
endfacet
facet normal 0.0 1.0 0.0
  outer loop
    vertex 38.99999999999999 12.0 145.1125737054715
    vertex 44.4 12.0 20.859162117562473
    vertex 5.000000000000002 12.0 145.1125737054715
  endloop
endfacet
facet normal 0.0 1.0 0.0
  outer loop
    vertex 44.4 12.0 150.1125737054715
    vertex 38.99999999999999 12.0 145.1125737054715
    vertex 38.99999999999999 12.0 150.1125737054715
  endloop
endfacet
facet normal -1.0 -8.92326233031661e-17 -3.5650224332207526e-17
  outer loop
    vertex 5.000000000000001 12.0 164.11257370547153
    vertex 5.000000000000001 14.299257428722076 162.61798845893227
    vertex 5.000000000000001 12.0 150.1125737054715
  endloop
endfacet
facet normal -1.0 -8.92326233031661e-17 -3.5650224332207526e-17
  outer loop
    vertex 5.000000000000001 14.299257428722076 162.61798845893227
    vertex 5.000000000000001 12.0 164.11257370547153
    vertex 5.000000000000001 15.29 164.11257370547153
  endloop
endfacet
facet normal -1.0 -8.92326233031661e-17 -3.5650224332207526e-17
  outer loop
    vertex 5.000000000000001 12.0 150.1125737054715
    vertex 5.000000000000001 14.299257428722076 162.61798845893227
    vertex 5.000000000000002 12.0 145.1125737054715
  endloop
endfacet
facet normal -1.0 -8.92326233031661e-17 -3.5650224332207526e-17
  outer loop
    vertex 5.000000000000001 14.299257428722076 162.61798845893227
    vertex 5.000000000000001 15.29 164.11257370547153
    vertex 5.000000000000001 14.499999999999998 162.6125737054715
  endloop
endfacet
facet normal -1.0 -8.92326233031661e-17 -3.5650224332207526e-17
  outer loop
    vertex 5.000000000000001 14.499999999999998 162.6125737054715
    vertex 5.000000000000001 15.29 164.11257370547153
    vertex 5.000000000000001 15.29 162.6125737054715
  endloop
endfacet
facet normal -1.0 -8.92326233031661e-17 -3.5650224332207526e-17
  outer loop
    vertex 5.000000000000001 14.299257428722076 150.3779884589323
    vertex 5.000000000000002 12.0 145.1125737054715
    vertex 5.000000000000001 14.299257428722076 162.61798845893227
  endloop
endfacet
facet normal 0.0 0.916435870566061 -0.40018157771170076
  outer loop
    vertex 5.000000000000001 14.299257428722076 150.3779884589323
    vertex 38.99999999999999 12.0 145.1125737054715
    vertex 5.000000000000002 12.0 145.1125737054715
  endloop
endfacet
facet normal 0.0 0.916435870566061 -0.40018157771170076
  outer loop
    vertex 38.99999999999999 12.0 145.1125737054715
    vertex 5.000000000000001 14.299257428722076 150.3779884589323
    vertex 38.99999999999999 14.299257428722076 150.3779884589323
  endloop
endfacet
facet normal 1.0 0.0 0.0
  outer loop
    vertex 4.000000000000003 15.4 0.0
    vertex 4.000000000000003 12.0 11.3
    vertex 4.000000000000003 12.0 0.0
  endloop
endfacet
facet normal 1.0 0.0 0.0
  outer loop
    vertex 4.000000000000003 12.0 11.3
    vertex 4.000000000000003 15.4 0.0
    vertex 4.000000000000003 15.4 11.3
  endloop
endfacet
facet normal 0.0 -1.0 0.0
  outer loop
    vertex 39.999999999999986 15.4 11.3
    vertex 4.000000000000003 15.4 0.0
    vertex 39.999999999999986 15.4 0.0
  endloop
endfacet
facet normal 0.0 -1.0 0.0
  outer loop
    vertex 4.000000000000003 15.4 0.0
    vertex 39.999999999999986 15.4 11.3
    vertex 4.000000000000003 15.4 11.3
  endloop
endfacet
facet normal -1.0 0.0 0.0
  outer loop
    vertex 39.999999999999986 15.4 11.3
    vertex 39.999999999999986 12.0 0.0
    vertex 39.999999999999986 12.0 11.3
  endloop
endfacet
facet normal -1.0 0.0 0.0
  outer loop
    vertex 39.999999999999986 12.0 0.0
    vertex 39.999999999999986 15.4 11.3
    vertex 39.999999999999986 15.4 0.0
  endloop
endfacet
facet normal 0.0 0.0 1.0
  outer loop
    vertex 45.599999999999994 12.0 11.3
    vertex 39.999999999999986 15.4 11.3
    vertex 39.999999999999986 12.0 11.3
  endloop
endfacet
facet normal 0.0 0.0 1.0
  outer loop
    vertex 4.000000000000003 12.0 11.3
    vertex -1.5999999999999999 17.4 11.3
    vertex -1.5999999999999999 12.0 11.3
  endloop
endfacet
facet normal 0.0 0.0 1.0
  outer loop
    vertex -1.5999999999999999 17.4 11.3
    vertex 4.000000000000003 12.0 11.3
    vertex 4.000000000000003 15.4 11.3
  endloop
endfacet
facet normal 0.0 0.0 1.0
  outer loop
    vertex -1.5999999999999999 17.4 11.3
    vertex 4.000000000000003 15.4 11.3
    vertex 45.599999999999994 17.4 11.3
  endloop
endfacet
facet normal 0.0 0.0 1.0
  outer loop
    vertex 45.599999999999994 17.4 11.3
    vertex 4.000000000000003 15.4 11.3
    vertex 39.999999999999986 15.4 11.3
  endloop
endfacet
facet normal 0.0 0.0 1.0
  outer loop
    vertex 45.599999999999994 17.4 11.3
    vertex 39.999999999999986 15.4 11.3
    vertex 45.599999999999994 12.0 11.3
  endloop
endfacet
facet normal 0.0 -1.0 0.0
  outer loop
    vertex 6.999999999999994 -4.999999999999999 0.35
    vertex -5.0 -4.999999999999999 0.0
    vertex 6.999999999999993 -4.999999999999999 0.0
  endloop
endfacet
facet normal 0.0 -1.0 0.0
  outer loop
    vertex -5.0 -4.999999999999999 0.0
    vertex 6.999999999999994 -4.999999999999999 0.35
    vertex -5.0 -4.999999999999999 0.35
  endloop
endfacet
facet normal -1.0 2.3499720687899144e-17 0.0
  outer loop
    vertex 36.99999999999999 4.999999999999998 0.35
    vertex 36.99999999999999 -5.0 0.0
    vertex 36.99999999999999 -5.0 0.35
  endloop
endfacet
facet normal -1.0 2.3499720687899144e-17 0.0
  outer loop
    vertex 36.99999999999999 -5.0 0.0
    vertex 36.99999999999999 4.999999999999998 0.35
    vertex 36.99999999999999 4.999999999999998 0.0
  endloop
endfacet
facet normal -2.3499720687899144e-17 -1.0 0.0
  outer loop
    vertex 36.99999999999999 4.999999999999998 0.35
    vertex 6.999999999999993 4.999999999999998 0.0
    vertex 36.99999999999999 4.999999999999998 0.0
  endloop
endfacet
facet normal -2.3499720687899144e-17 -1.0 0.0
  outer loop
    vertex 6.999999999999993 4.999999999999998 0.0
    vertex 36.99999999999999 4.999999999999998 0.35
    vertex 6.999999999999994 4.999999999999998 0.35
  endloop
endfacet
facet normal 1.0 -2.3499720687899144e-17 -4.0285235464969965e-15
  outer loop
    vertex 6.999999999999993 4.999999999999998 0.0
    vertex 6.999999999999994 -4.999999999999999 0.35
    vertex 6.999999999999993 -4.999999999999999 0.0
  endloop
endfacet
facet normal 1.0 -2.3499720687899144e-17 -4.0285235464969965e-15
  outer loop
    vertex 6.999999999999994 -4.999999999999999 0.35
    vertex 6.999999999999993 4.999999999999998 0.0
    vertex 6.999999999999994 4.999999999999998 0.35
  endloop
endfacet
facet normal 0.0 0.0 -1.0
  outer loop
    vertex -5.000000000000001 22.400000000000002 0.0
    vertex 4.000000000000003 15.4 0.0
    vertex -5.0 -4.999999999999999 0.0
  endloop
endfacet
facet normal 0.0 0.0 -1.0
  outer loop
    vertex 4.000000000000003 15.4 0.0
    vertex -5.000000000000001 22.400000000000002 0.0
    vertex 49.0 22.400000000000002 0.0
  endloop
endfacet
facet normal 0.0 0.0 -1.0
  outer loop
    vertex 4.000000000000003 15.4 0.0
    vertex 49.0 22.400000000000002 0.0
    vertex 39.999999999999986 15.4 0.0
  endloop
endfacet
facet normal 0.0 0.0 -1.0
  outer loop
    vertex 39.999999999999986 15.4 0.0
    vertex 49.0 22.400000000000002 0.0
    vertex 39.999999999999986 12.0 0.0
  endloop
endfacet
facet normal 0.0 0.0 -1.0
  outer loop
    vertex 39.999999999999986 12.0 0.0
    vertex 6.999999999999993 4.999999999999998 0.0
    vertex 4.000000000000003 12.0 0.0
  endloop
endfacet
facet normal 0.0 0.0 -1.0
  outer loop
    vertex 6.999999999999993 4.999999999999998 0.0
    vertex 39.999999999999986 12.0 0.0
    vertex 36.99999999999999 4.999999999999998 0.0
  endloop
endfacet
facet normal 0.0 0.0 -1.0
  outer loop
    vertex 36.99999999999999 4.999999999999998 0.0
    vertex 39.999999999999986 12.0 0.0
    vertex 36.99999999999999 -5.0 0.0
  endloop
endfacet
facet normal 0.0 0.0 -1.0
  outer loop
    vertex 36.99999999999999 -5.0 0.0
    vertex 39.999999999999986 12.0 0.0
    vertex 49.0 -5.0 0.0
  endloop
endfacet
facet normal 0.0 0.0 -1.0
  outer loop
    vertex 49.0 -5.0 0.0
    vertex 39.999999999999986 12.0 0.0
    vertex 49.0 22.400000000000002 0.0
  endloop
endfacet
facet normal 0.0 0.0 -1.0
  outer loop
    vertex -5.0 -4.999999999999999 0.0
    vertex 4.000000000000003 12.0 0.0
    vertex 6.999999999999993 -4.999999999999999 0.0
  endloop
endfacet
facet normal 0.0 0.0 -1.0
  outer loop
    vertex 4.000000000000003 12.0 0.0
    vertex -5.0 -4.999999999999999 0.0
    vertex 4.000000000000003 15.4 0.0
  endloop
endfacet
facet normal 0.0 0.0 -1.0
  outer loop
    vertex 6.999999999999993 -4.999999999999999 0.0
    vertex 4.000000000000003 12.0 0.0
    vertex 6.999999999999993 4.999999999999998 0.0
  endloop
endfacet
facet normal -1.0 -2.572962119113045e-17 0.0
  outer loop
    vertex -5.000000000000001 22.400000000000002 0.35
    vertex -5.0 -4.999999999999999 0.0
    vertex -5.0 -4.999999999999999 0.35
  endloop
endfacet
facet normal -1.0 -2.572962119113045e-17 0.0
  outer loop
    vertex -5.0 -4.999999999999999 0.0
    vertex -5.000000000000001 22.400000000000002 0.35
    vertex -5.000000000000001 22.400000000000002 0.0
  endloop
endfacet
facet normal 0.0 -1.0 0.0
  outer loop
    vertex 49.0 -5.0 0.35
    vertex 36.99999999999999 -5.0 0.0
    vertex 49.0 -5.0 0.0
  endloop
endfacet
facet normal 0.0 -1.0 0.0
  outer loop
    vertex 36.99999999999999 -5.0 0.0
    vertex 49.0 -5.0 0.35
    vertex 36.99999999999999 -5.0 0.35
  endloop
endfacet
facet normal 1.0 0.0 0.0
  outer loop
    vertex 49.0 22.400000000000002 0.0
    vertex 49.0 -5.0 0.35
    vertex 49.0 -5.0 0.0
  endloop
endfacet
facet normal 1.0 0.0 0.0
  outer loop
    vertex 49.0 -5.0 0.35
    vertex 49.0 22.400000000000002 0.0
    vertex 49.0 22.400000000000002 0.35
  endloop
endfacet
facet normal 0.0 1.0 0.0
  outer loop
    vertex -5.000000000000001 22.400000000000002 0.35
    vertex 49.0 22.400000000000002 0.0
    vertex -5.000000000000001 22.400000000000002 0.0
  endloop
endfacet
facet normal 0.0 1.0 0.0
  outer loop
    vertex 49.0 22.400000000000002 0.0
    vertex -5.000000000000001 22.400000000000002 0.35
    vertex 49.0 22.400000000000002 0.35
  endloop
endfacet
facet normal 0.0 0.0 1.0
  outer loop
    vertex 36.99999999999999 -5.0 0.35
    vertex 41.99999999999999 0.0 0.35
    vertex 36.99999999999999 4.999999999999998 0.35
  endloop
endfacet
facet normal 0.0 0.0 1.0
  outer loop
    vertex 41.99999999999999 0.0 0.35
    vertex 36.99999999999999 -5.0 0.35
    vertex 49.0 -5.0 0.35
  endloop
endfacet
facet normal 0.0 0.0 1.0
  outer loop
    vertex 41.99999999999999 0.0 0.35
    vertex 49.0 -5.0 0.35
    vertex 45.599999999999994 0.0 0.35
  endloop
endfacet
facet normal 0.0 0.0 1.0
  outer loop
    vertex 45.599999999999994 0.0 0.35
    vertex 49.0 -5.0 0.35
    vertex 45.599999999999994 17.4 0.35
  endloop
endfacet
facet normal 0.0 0.0 1.0
  outer loop
    vertex -5.000000000000001 22.400000000000002 0.35
    vertex -1.5999999999999999 17.4 0.35
    vertex 49.0 22.400000000000002 0.35
  endloop
endfacet
facet normal 0.0 0.0 1.0
  outer loop
    vertex -1.5999999999999999 17.4 0.35
    vertex -5.000000000000001 22.400000000000002 0.35
    vertex -5.0 -4.999999999999999 0.35
  endloop
endfacet
facet normal 0.0 0.0 1.0
  outer loop
    vertex -1.5999999999999999 17.4 0.35
    vertex -5.0 -4.999999999999999 0.35
    vertex -1.5999999999999999 0.0 0.35
  endloop
endfacet
facet normal 0.0 0.0 1.0
  outer loop
    vertex 49.0 22.400000000000002 0.35
    vertex -1.5999999999999999 17.4 0.35
    vertex 45.599999999999994 17.4 0.35
  endloop
endfacet
facet normal 0.0 0.0 1.0
  outer loop
    vertex 49.0 22.400000000000002 0.35
    vertex 45.599999999999994 17.4 0.35
    vertex 49.0 -5.0 0.35
  endloop
endfacet
facet normal 0.0 0.0 1.0
  outer loop
    vertex 6.999999999999994 -4.999999999999999 0.35
    vertex -1.5999999999999999 0.0 0.35
    vertex -5.0 -4.999999999999999 0.35
  endloop
endfacet
facet normal 0.0 0.0 1.0
  outer loop
    vertex -1.5999999999999999 0.0 0.35
    vertex 6.999999999999994 -4.999999999999999 0.35
    vertex 1.9999999999999962 0.0 0.35
  endloop
endfacet
facet normal 0.0 0.0 1.0
  outer loop
    vertex 1.9999999999999962 0.0 0.35
    vertex 6.999999999999994 -4.999999999999999 0.35
    vertex 1.9999999999999962 9.600000000000001 0.35
  endloop
endfacet
facet normal 0.0 0.0 1.0
  outer loop
    vertex 1.9999999999999962 9.600000000000001 0.35
    vertex 6.999999999999994 -4.999999999999999 0.35
    vertex 6.999999999999994 4.999999999999998 0.35
  endloop
endfacet
facet normal 0.0 0.0 1.0
  outer loop
    vertex 1.9999999999999962 9.600000000000001 0.35
    vertex 6.999999999999994 4.999999999999998 0.35
    vertex 41.99999999999999 9.600000000000001 0.35
  endloop
endfacet
facet normal 0.0 0.0 1.0
  outer loop
    vertex 41.99999999999999 9.600000000000001 0.35
    vertex 6.999999999999994 4.999999999999998 0.35
    vertex 36.99999999999999 4.999999999999998 0.35
  endloop
endfacet
facet normal 0.0 0.0 1.0
  outer loop
    vertex 41.99999999999999 9.600000000000001 0.35
    vertex 36.99999999999999 4.999999999999998 0.35
    vertex 41.99999999999999 0.0 0.35
  endloop
endfacet
facet normal 0.0 0.0 1.0
  outer loop
    vertex 38.99999999999999 12.0 164.11257370547153
    vertex 5.000000000000001 15.29 164.11257370547153
    vertex 5.000000000000001 12.0 164.11257370547153
  endloop
endfacet
facet normal 0.0 0.0 1.0
  outer loop
    vertex 5.000000000000001 15.29 164.11257370547153
    vertex 38.99999999999999 12.0 164.11257370547153
    vertex 38.99999999999999 15.29 164.11257370547153
  endloop
endfacet
facet normal 0.0 -0.026963810805212235 -0.9996364103547153
  outer loop
    vertex 38.99999999999999 14.499999999999998 162.6125737054715
    vertex 5.000000000000001 14.299257428722076 162.61798845893227
    vertex 5.000000000000001 14.499999999999998 162.6125737054715
  endloop
endfacet
facet normal 0.0 -0.026963810805212235 -0.9996364103547153
  outer loop
    vertex 5.000000000000001 14.299257428722076 162.61798845893227
    vertex 38.99999999999999 14.499999999999998 162.6125737054715
    vertex 38.99999999999999 14.299257428722076 162.61798845893227
  endloop
endfacet
facet normal 0.0 -1.0 0.0
  outer loop
    vertex 38.99999999999999 12.0 164.11257370547153
    vertex 5.000000000000001 12.0 150.1125737054715
    vertex 38.99999999999999 12.0 150.1125737054715
  endloop
endfacet
facet normal 0.0 -1.0 0.0
  outer loop
    vertex 5.000000000000001 12.0 150.1125737054715
    vertex 38.99999999999999 12.0 164.11257370547153
    vertex 5.000000000000001 12.0 164.11257370547153
  endloop
endfacet
facet normal -1.0 0.0 0.0
  outer loop
    vertex -1.5999999999999999 12.0 20.859162117562473
    vertex -1.5999999999999999 0.0 0.35
    vertex -1.5999999999999999 0.0 20.85916211756247
  endloop
endfacet
facet normal -1.0 0.0 0.0
  outer loop
    vertex -1.5999999999999999 0.0 0.35
    vertex -1.5999999999999999 12.0 20.859162117562473
    vertex -1.5999999999999999 12.0 11.3
  endloop
endfacet
facet normal -1.0 0.0 0.0
  outer loop
    vertex -1.5999999999999999 0.0 0.35
    vertex -1.5999999999999999 12.0 11.3
    vertex -1.5999999999999999 17.4 0.35
  endloop
endfacet
facet normal -1.0 0.0 0.0
  outer loop
    vertex -1.5999999999999999 17.4 0.35
    vertex -1.5999999999999999 12.0 11.3
    vertex -1.5999999999999999 17.4 11.3
  endloop
endfacet
facet normal 0.0 -2.3499720687899147e-16 1.0
  outer loop
    vertex -0.39999999999999997 0.0 20.85916211756247
    vertex -1.5999999999999999 12.0 20.859162117562473
    vertex -1.5999999999999999 0.0 20.85916211756247
  endloop
endfacet
facet normal 0.0 -2.3499720687899147e-16 1.0
  outer loop
    vertex -1.5999999999999999 12.0 20.859162117562473
    vertex -0.39999999999999997 0.0 20.85916211756247
    vertex -0.39999999999999997 12.0 20.859162117562473
  endloop
endfacet
facet normal 1.0 0.0 0.0
  outer loop
    vertex 44.4 12.0 20.859162117562473
    vertex 44.4 0.0 150.1125737054715
    vertex 44.4 0.0 20.85916211756247
  endloop
endfacet
facet normal 1.0 0.0 0.0
  outer loop
    vertex 44.4 0.0 150.1125737054715
    vertex 44.4 12.0 20.859162117562473
    vertex 44.4 12.0 150.1125737054715
  endloop
endfacet
facet normal 1.0 0.0 0.0
  outer loop
    vertex 45.599999999999994 12.0 20.859162117562473
    vertex 45.599999999999994 0.0 20.85916211756247
    vertex 45.599999999999994 12.0 11.3
  endloop
endfacet
facet normal 1.0 0.0 0.0
  outer loop
    vertex 45.599999999999994 17.4 0.35
    vertex 45.599999999999994 0.0 20.85916211756247
    vertex 45.599999999999994 0.0 0.35
  endloop
endfacet
facet normal 1.0 0.0 0.0
  outer loop
    vertex 45.599999999999994 0.0 20.85916211756247
    vertex 45.599999999999994 17.4 0.35
    vertex 45.599999999999994 12.0 11.3
  endloop
endfacet
facet normal 1.0 0.0 0.0
  outer loop
    vertex 45.599999999999994 12.0 11.3
    vertex 45.599999999999994 17.4 0.35
    vertex 45.599999999999994 17.4 11.3
  endloop
endfacet
facet normal 0.0 -2.3499720687899147e-16 1.0
  outer loop
    vertex 45.599999999999994 0.0 20.85916211756247
    vertex 44.4 12.0 20.859162117562473
    vertex 44.4 0.0 20.85916211756247
  endloop
endfacet
facet normal 0.0 -2.3499720687899147e-16 1.0
  outer loop
    vertex 44.4 12.0 20.859162117562473
    vertex 45.599999999999994 0.0 20.85916211756247
    vertex 45.599999999999994 12.0 20.859162117562473
  endloop
endfacet
facet normal 0.0 1.0 0.0
  outer loop
    vertex 5.000000000000001 14.299257428722076 162.61798845893227
    vertex 38.99999999999999 14.299257428722076 150.3779884589323
    vertex 5.000000000000001 14.299257428722076 150.3779884589323
  endloop
endfacet
facet normal 0.0 1.0 0.0
  outer loop
    vertex 38.99999999999999 14.299257428722076 150.3779884589323
    vertex 5.000000000000001 14.299257428722076 162.61798845893227
    vertex 38.99999999999999 14.299257428722076 162.61798845893227
  endloop
endfacet
facet normal 0.0 1.0 0.0
  outer loop
    vertex 5.000000000000001 15.29 164.11257370547153
    vertex 38.99999999999999 15.29 162.6125737054715
    vertex 5.000000000000001 15.29 162.6125737054715
  endloop
endfacet
facet normal 0.0 1.0 0.0
  outer loop
    vertex 38.99999999999999 15.29 162.6125737054715
    vertex 5.000000000000001 15.29 164.11257370547153
    vertex 38.99999999999999 15.29 164.11257370547153
  endloop
endfacet
facet normal -0.0 -0.0 -1.0
  outer loop
    vertex 38.99999999999999 15.29 162.6125737054715
    vertex 5.000000000000001 14.499999999999998 162.6125737054715
    vertex 5.000000000000001 15.29 162.6125737054715
  endloop
endfacet
facet normal -0.0 -0.0 -1.0
  outer loop
    vertex 5.000000000000001 14.499999999999998 162.6125737054715
    vertex 38.99999999999999 15.29 162.6125737054715
    vertex 38.99999999999999 14.499999999999998 162.6125737054715
  endloop
endfacet
endsolid debout droit
