solid courbe 2
facet normal 0.0 -1.0 0.0
  outer loop
    vertex 48.999999999999986 -4.999999999999999 0.3499999999999999
    vertex 36.999999999999986 -4.999999999999999 0.0
    vertex 48.999999999999986 -4.999999999999999 0.0
  endloop
endfacet
facet normal 0.0 -1.0 0.0
  outer loop
    vertex 36.999999999999986 -4.999999999999999 0.0
    vertex 48.999999999999986 -4.999999999999999 0.3499999999999999
    vertex 36.999999999999986 -4.999999999999999 0.3499999999999999
  endloop
endfacet
facet normal -1.0 -5.1459242382260904e-17 0.0
  outer loop
    vertex -5.000000000000001 22.400000000000002 0.3499999999999999
    vertex -4.999999999999999 -4.999999999999998 0.0
    vertex -4.999999999999999 -4.999999999999998 0.3499999999999999
  endloop
endfacet
facet normal -1.0 -5.1459242382260904e-17 0.0
  outer loop
    vertex -4.999999999999999 -4.999999999999998 0.0
    vertex -5.000000000000001 22.400000000000002 0.3499999999999999
    vertex -5.000000000000001 22.400000000000002 0.0
  endloop
endfacet
facet normal 1.0 4.0827252436978116e-17 -5.033081779899129e-15
  outer loop
    vertex 48.999999999999986 22.400000000000002 0.0
    vertex 48.999999999999986 -4.999999999999999 0.3499999999999999
    vertex 48.999999999999986 -4.999999999999999 0.0
  endloop
endfacet
facet normal 1.0 4.0827252436978116e-17 -5.033081779899129e-15
  outer loop
    vertex 48.999999999999986 -4.999999999999999 0.3499999999999999
    vertex 48.999999999999986 22.400000000000002 0.0
    vertex 48.999999999999986 22.400000000000002 0.3499999999999999
  endloop
endfacet
facet normal 0.0 1.0 0.0
  outer loop
    vertex -5.000000000000001 22.400000000000002 0.3499999999999999
    vertex 48.999999999999986 22.400000000000002 0.0
    vertex -5.000000000000001 22.400000000000002 0.0
  endloop
endfacet
facet normal 0.0 1.0 0.0
  outer loop
    vertex 48.999999999999986 22.400000000000002 0.0
    vertex -5.000000000000001 22.400000000000002 0.3499999999999999
    vertex 48.999999999999986 22.400000000000002 0.3499999999999999
  endloop
endfacet
facet normal 5.633720413098873e-18 1.0469642974757529e-16 1.0
  outer loop
    vertex 45.11770091782685 11.999999999999998 11.3
    vertex 39.999999999999986 15.4 11.3
    vertex 39.999999999999986 11.999999999999998 11.3
  endloop
endfacet
facet normal 5.633720413098873e-18 1.0469642974757529e-16 1.0
  outer loop
    vertex 0.3177009178268379 12.00000000000002 11.300000000000002
    vertex -1.5999999999999999 17.799999999999997 11.3
    vertex -1.5999999999999999 11.999999999999998 11.3
  endloop
endfacet
facet normal 5.633720413098873e-18 1.0469642974757529e-16 1.0
  outer loop
    vertex -1.5999999999999999 17.799999999999997 11.3
    vertex 0.3177009178268379 12.00000000000002 11.300000000000002
    vertex 4.000000000000003 15.4 11.3
  endloop
endfacet
facet normal 5.633720413098873e-18 1.0469642974757529e-16 1.0
  outer loop
    vertex -1.5999999999999999 17.799999999999997 11.3
    vertex 4.000000000000003 15.4 11.3
    vertex 45.59999999999999 17.799999999999997 11.3
  endloop
endfacet
facet normal 5.633720413098873e-18 1.0469642974757529e-16 1.0
  outer loop
    vertex 4.000000000000003 15.4 11.3
    vertex 0.3177009178268379 12.00000000000002 11.300000000000002
    vertex 4.000000000000003 11.999999999999998 11.3
  endloop
endfacet
facet normal 5.633720413098873e-18 1.0469642974757529e-16 1.0
  outer loop
    vertex 45.59999999999999 17.799999999999997 11.3
    vertex 4.000000000000003 15.4 11.3
    vertex 39.999999999999986 15.4 11.3
  endloop
endfacet
facet normal 5.633720413098873e-18 1.0469642974757529e-16 1.0
  outer loop
    vertex 45.59999999999999 17.799999999999997 11.3
    vertex 39.999999999999986 15.4 11.3
    vertex 45.11770091782685 11.999999999999998 11.3
  endloop
endfacet
facet normal 5.633720413098873e-18 1.0469642974757529e-16 1.0
  outer loop
    vertex 45.59999999999999 17.799999999999997 11.3
    vertex 45.11770091782685 11.999999999999998 11.3
    vertex 45.59999999999999 11.999999999999998 11.3
  endloop
endfacet
facet normal -1.0 0.0 0.0
  outer loop
    vertex 39.999999999999986 15.4 11.3
    vertex 39.999999999999986 11.999999999999998 0.0
    vertex 39.999999999999986 11.999999999999998 11.3
  endloop
endfacet
facet normal -1.0 0.0 0.0
  outer loop
    vertex 39.999999999999986 11.999999999999998 0.0
    vertex 39.999999999999986 15.4 11.3
    vertex 39.999999999999986 15.4 0.0
  endloop
endfacet
facet normal 0.0 -1.0 0.0
  outer loop
    vertex 39.999999999999986 15.4 11.3
    vertex 4.000000000000003 15.4 0.0
    vertex 39.999999999999986 15.4 0.0
  endloop
endfacet
facet normal 0.0 -1.0 0.0
  outer loop
    vertex 4.000000000000003 15.4 0.0
    vertex 39.999999999999986 15.4 11.3
    vertex 4.000000000000003 15.4 11.3
  endloop
endfacet
facet normal 1.0 0.0 0.0
  outer loop
    vertex 4.000000000000003 15.4 0.0
    vertex 4.000000000000003 11.999999999999998 11.3
    vertex 4.000000000000003 11.999999999999998 0.0
  endloop
endfacet
facet normal 1.0 0.0 0.0
  outer loop
    vertex 4.000000000000003 11.999999999999998 11.3
    vertex 4.000000000000003 15.4 0.0
    vertex 4.000000000000003 15.4 11.3
  endloop
endfacet
facet normal -0.42880277935791106 0.9033981273032012 -1.0193778613444582e-14
  outer loop
    vertex 161.60000000000014 11.999999999999998 161.9499999999999
    vertex 166.86541475346175 14.499257428722077 127.95000000000005
    vertex 161.60000000000093 11.999999999999998 127.94999999999992
  endloop
endfacet
facet normal -0.42880277935791106 0.9033981273032012 -1.0193778613444582e-14
  outer loop
    vertex 166.86541475346175 14.499257428722077 127.95000000000005
    vertex 161.60000000000014 11.999999999999998 161.9499999999999
    vertex 166.86541475346093 14.499257428722077 161.95000000000002
  endloop
endfacet
facet normal -2.3772650514786164e-14 0.0 1.0
  outer loop
    vertex 180.60000000000022 12.200000000000001 159.95000000000036
    vertex 179.10541475346093 14.499257428722077 159.95000000000033
    vertex 179.10541475346093 12.200000000000001 159.95000000000033
  endloop
endfacet
facet normal -2.3772650514786164e-14 0.0 1.0
  outer loop
    vertex 179.10541475346093 14.499257428722077 159.95000000000033
    vertex 179.1000000000002 15.489999999999998 159.95000000000033
    vertex 179.1000000000002 14.7 159.95000000000033
  endloop
endfacet
facet normal -2.3772650514786164e-14 0.0 1.0
  outer loop
    vertex 179.1000000000002 15.489999999999998 159.95000000000033
    vertex 179.10541475346093 14.499257428722077 159.95000000000033
    vertex 180.60000000000022 15.489999999999998 159.95000000000036
  endloop
endfacet
facet normal -2.3772650514786164e-14 0.0 1.0
  outer loop
    vertex 180.60000000000022 15.489999999999998 159.95000000000036
    vertex 179.10541475346093 14.499257428722077 159.95000000000033
    vertex 180.60000000000022 12.200000000000001 159.95000000000036
  endloop
endfacet
facet normal 1.0 -5.168937125750818e-32 -8.057047092993991e-15
  outer loop
    vertex 6.999999999999993 4.999999999999998 0.0
    vertex 6.999999999999993 -4.999999999999998 0.3499999999999999
    vertex 6.999999999999993 -4.999999999999998 0.0
  endloop
endfacet
facet normal 1.0 -5.168937125750818e-32 -8.057047092993991e-15
  outer loop
    vertex 6.999999999999993 -4.999999999999998 0.3499999999999999
    vertex 6.999999999999993 4.999999999999998 0.0
    vertex 6.999999999999993 4.999999999999998 0.3499999999999999
  endloop
endfacet
facet normal 0.0 0.0 -1.0
  outer loop
    vertex -5.000000000000001 22.400000000000002 0.0
    vertex 4.000000000000003 15.4 0.0
    vertex -4.999999999999999 -4.999999999999998 0.0
  endloop
endfacet
facet normal 0.0 0.0 -1.0
  outer loop
    vertex 4.000000000000003 15.4 0.0
    vertex -5.000000000000001 22.400000000000002 0.0
    vertex 48.999999999999986 22.400000000000002 0.0
  endloop
endfacet
facet normal 0.0 0.0 -1.0
  outer loop
    vertex 4.000000000000003 15.4 0.0
    vertex 48.999999999999986 22.400000000000002 0.0
    vertex 39.999999999999986 15.4 0.0
  endloop
endfacet
facet normal 0.0 0.0 -1.0
  outer loop
    vertex 39.999999999999986 15.4 0.0
    vertex 48.999999999999986 22.400000000000002 0.0
    vertex 39.999999999999986 11.999999999999998 0.0
  endloop
endfacet
facet normal 0.0 0.0 -1.0
  outer loop
    vertex 39.999999999999986 11.999999999999998 0.0
    vertex 6.999999999999993 4.999999999999998 0.0
    vertex 4.000000000000003 11.999999999999998 0.0
  endloop
endfacet
facet normal 0.0 0.0 -1.0
  outer loop
    vertex 6.999999999999993 4.999999999999998 0.0
    vertex 39.999999999999986 11.999999999999998 0.0
    vertex 36.999999999999986 4.999999999999998 0.0
  endloop
endfacet
facet normal 0.0 0.0 -1.0
  outer loop
    vertex 36.999999999999986 4.999999999999998 0.0
    vertex 39.999999999999986 11.999999999999998 0.0
    vertex 36.999999999999986 -4.999999999999999 0.0
  endloop
endfacet
facet normal 0.0 0.0 -1.0
  outer loop
    vertex 36.999999999999986 -4.999999999999999 0.0
    vertex 39.999999999999986 11.999999999999998 0.0
    vertex 48.999999999999986 -4.999999999999999 0.0
  endloop
endfacet
facet normal 0.0 0.0 -1.0
  outer loop
    vertex 48.999999999999986 -4.999999999999999 0.0
    vertex 39.999999999999986 11.999999999999998 0.0
    vertex 48.999999999999986 22.400000000000002 0.0
  endloop
endfacet
facet normal 0.0 0.0 -1.0
  outer loop
    vertex -4.999999999999999 -4.999999999999998 0.0
    vertex 4.000000000000003 11.999999999999998 0.0
    vertex 6.999999999999993 -4.999999999999998 0.0
  endloop
endfacet
facet normal 0.0 0.0 -1.0
  outer loop
    vertex 4.000000000000003 11.999999999999998 0.0
    vertex -4.999999999999999 -4.999999999999998 0.0
    vertex 4.000000000000003 15.4 0.0
  endloop
endfacet
facet normal 0.0 0.0 -1.0
  outer loop
    vertex 6.999999999999993 -4.999999999999998 0.0
    vertex 4.000000000000003 11.999999999999998 0.0
    vertex 6.999999999999993 4.999999999999998 0.0
  endloop
endfacet
facet normal -1.0 -1.192831644404035e-32 -5.3713647286626635e-15
  outer loop
    vertex 36.999999999999986 4.999999999999998 0.3499999999999999
    vertex 36.999999999999986 -4.999999999999999 0.0
    vertex 36.999999999999986 -4.999999999999999 0.3499999999999999
  endloop
endfacet
facet normal -1.0 -1.192831644404035e-32 -5.3713647286626635e-15
  outer loop
    vertex 36.999999999999986 -4.999999999999999 0.0
    vertex 36.999999999999986 4.999999999999998 0.3499999999999999
    vertex 36.999999999999986 4.999999999999998 0.0
  endloop
endfacet
facet normal 0.0 -1.0 0.0
  outer loop
    vertex 36.999999999999986 4.999999999999998 0.3499999999999999
    vertex 6.999999999999993 4.999999999999998 0.0
    vertex 36.999999999999986 4.999999999999998 0.0
  endloop
endfacet
facet normal 0.0 -1.0 0.0
  outer loop
    vertex 6.999999999999993 4.999999999999998 0.0
    vertex 36.999999999999986 4.999999999999998 0.3499999999999999
    vertex 6.999999999999993 4.999999999999998 0.3499999999999999
  endloop
endfacet
facet normal 0.0 -1.0 0.0
  outer loop
    vertex 6.999999999999993 -4.999999999999998 0.3499999999999999
    vertex -4.999999999999999 -4.999999999999998 0.0
    vertex 6.999999999999993 -4.999999999999998 0.0
  endloop
endfacet
facet normal 0.0 -1.0 0.0
  outer loop
    vertex -4.999999999999999 -4.999999999999998 0.0
    vertex 6.999999999999993 -4.999999999999998 0.3499999999999999
    vertex -4.999999999999999 -4.999999999999998 0.3499999999999999
  endloop
endfacet
facet normal 0.0 1.0 0.0
  outer loop
    vertex -1.5999999999999999 17.799999999999997 11.3
    vertex 45.59999999999999 17.799999999999997 0.3499999999999999
    vertex -1.5999999999999999 17.799999999999997 0.3499999999999999
  endloop
endfacet
facet normal 0.0 1.0 0.0
  outer loop
    vertex 45.59999999999999 17.799999999999997 0.3499999999999999
    vertex -1.5999999999999999 17.799999999999997 11.3
    vertex 45.59999999999999 17.799999999999997 11.3
  endloop
endfacet
facet normal 0.7933533402912332 0.0 -0.6087614290087232
  outer loop
    vertex 69.65222181641131 11.999999999999998 74.74064662486602
    vertex 80.19155133900425 0.0 86.75844866099648
    vertex 69.65222181641131 0.0 74.74064662486602
  endloop
endfacet
facet normal 0.7071067811865446 0.0 -0.7071067811865505
  outer loop
    vertex 80.19155133900425 0.0 86.75844866099648
    vertex 69.65222181641131 11.999999999999998 74.74064662486602
    vertex 80.19155133900425 11.999999999999998 86.75844866099648
  endloop
endfacet
facet normal 0.9659258262890682 0.0 -0.2588190451025217
  outer loop
    vertex 48.56386402747587 11.999999999999998 31.977687311528204
    vertex 53.70192112712083 0.0 47.11391543501421
    vertex 48.56386402747587 0.0 31.977687311528204
  endloop
endfacet
facet normal 0.9238795325112859 0.0 -0.3826834323650923
  outer loop
    vertex 53.70192112712083 0.0 47.11391543501421
    vertex 48.56386402747587 11.999999999999998 31.977687311528204
    vertex 53.70192112712083 11.999999999999998 47.11391543501421
  endloop
endfacet
facet normal 0.9914448613738105 1.4597226675170611e-16 -0.1305261922200518
  outer loop
    vertex 45.44543794012037 11.999999999999998 16.30030068929039
    vertex 48.56386402747587 0.0 31.977687311528204
    vertex 45.44543794012037 0.0 16.30030068929039
  endloop
endfacet
facet normal 0.9659258262890682 0.0 -0.2588190451025217
  outer loop
    vertex 48.56386402747587 0.0 31.977687311528204
    vertex 45.44543794012037 11.999999999999998 16.30030068929039
    vertex 48.56386402747587 11.999999999999998 31.977687311528204
  endloop
endfacet
facet normal 0.8660254037844373 0.0 -0.5000000000000027
  outer loop
    vertex 60.771695657541756 11.999999999999998 61.450000000000294
    vertex 69.65222181641131 0.0 74.74064662486602
    vertex 60.771695657541756 0.0 61.450000000000294
  endloop
endfacet
facet normal 0.7933533402912332 0.0 -0.6087614290087232
  outer loop
    vertex 69.65222181641131 0.0 74.74064662486602
    vertex 60.771695657541756 11.999999999999998 61.450000000000294
    vertex 69.65222181641131 11.999999999999998 74.74064662486602
  endloop
endfacet
facet normal 0.9238795325112859 0.0 -0.3826834323650923
  outer loop
    vertex 53.70192112712083 11.999999999999998 47.11391543501421
    vertex 60.771695657541756 0.0 61.450000000000294
    vertex 53.70192112712083 0.0 47.11391543501421
  endloop
endfacet
facet normal 0.8660254037844373 0.0 -0.5000000000000027
  outer loop
    vertex 60.771695657541756 0.0 61.450000000000294
    vertex 53.70192112712083 11.999999999999998 47.11391543501421
    vertex 60.771695657541756 11.999999999999998 61.450000000000294
  endloop
endfacet
facet normal 0.6087614290087172 0.0 -0.793353340291238
  outer loop
    vertex 92.20935337513481 11.999999999999998 97.29777818358933
    vertex 80.19155133900425 0.0 86.75844866099648
    vertex 80.19155133900425 11.999999999999998 86.75844866099648
  endloop
endfacet
facet normal 0.7071067811865446 0.0 -0.7071067811865505
  outer loop
    vertex 80.19155133900425 0.0 86.75844866099648
    vertex 92.20935337513481 11.999999999999998 97.29777818358933
    vertex 92.20935337513481 0.0 97.29777818358933
  endloop
endfacet
facet normal 1.0 0.0 2.3772650514786164e-14
  outer loop
    vertex 180.6000000000009 15.489999999999998 129.95000000000036
    vertex 180.60000000000022 12.200000000000001 159.95000000000036
    vertex 180.6000000000009 12.200000000000001 129.95000000000036
  endloop
endfacet
facet normal 1.0 0.0 2.3772650514786164e-14
  outer loop
    vertex 180.60000000000022 12.200000000000001 159.95000000000036
    vertex 180.6000000000009 15.489999999999998 129.95000000000036
    vertex 180.60000000000022 15.489999999999998 159.95000000000036
  endloop
endfacet
facet normal -0.9996364103547184 -0.026963810805099978 -2.376400702521809e-14
  outer loop
    vertex 179.1000000000002 14.7 159.95000000000033
    vertex 179.10541475346164 14.499257428722077 129.95000000000033
    vertex 179.10541475346093 14.499257428722077 159.95000000000033
  endloop
endfacet
facet normal -0.9996364103547184 -0.026963810805099978 -2.376400702521809e-14
  outer loop
    vertex 179.10541475346164 14.499257428722077 129.95000000000033
    vertex 179.1000000000002 14.7 159.95000000000033
    vertex 179.1000000000009 14.7 129.95000000000033
  endloop
endfacet
facet normal 0.0 1.0 0.0
  outer loop
    vertex 166.86541475346093 14.499257428722077 161.95000000000002
    vertex 179.10541475346164 14.499257428722077 129.95000000000033
    vertex 166.86541475346175 14.499257428722077 127.95000000000005
  endloop
endfacet
facet normal 0.0 1.0 0.0
  outer loop
    vertex 179.10541475346164 14.499257428722077 129.95000000000033
    vertex 166.86541475346093 14.499257428722077 161.95000000000002
    vertex 179.10541475346093 14.499257428722077 159.95000000000033
  endloop
endfacet
facet normal 0.0 1.0 0.0
  outer loop
    vertex 179.1000000000002 15.489999999999998 159.95000000000033
    vertex 180.6000000000009 15.489999999999998 129.95000000000036
    vertex 179.1000000000009 15.489999999999998 129.95000000000033
  endloop
endfacet
facet normal 0.0 1.0 0.0
  outer loop
    vertex 180.6000000000009 15.489999999999998 129.95000000000036
    vertex 179.1000000000002 15.489999999999998 159.95000000000033
    vertex 180.60000000000022 15.489999999999998 159.95000000000036
  endloop
endfacet
facet normal -1.0 0.0 -2.3772650514786164e-14
  outer loop
    vertex 179.1000000000002 15.489999999999998 159.95000000000033
    vertex 179.1000000000009 14.7 129.95000000000033
    vertex 179.1000000000002 14.7 159.95000000000033
  endloop
endfacet
facet normal -1.0 0.0 -2.3772650514786164e-14
  outer loop
    vertex 179.1000000000009 14.7 129.95000000000033
    vertex 179.1000000000002 15.489999999999998 159.95000000000033
    vertex 179.1000000000009 15.489999999999998 129.95000000000033
  endloop
endfacet
facet normal 2.6604344572658947e-14 -2.0486230210392e-15 -1.0
  outer loop
    vertex 166.86541475346175 14.499257428722077 127.95000000000005
    vertex 166.60000000000096 12.200000000000001 127.95000000000005
    vertex 161.60000000000093 11.999999999999998 127.94999999999992
  endloop
endfacet
facet normal 2.6604344572658947e-14 -2.0486230210392e-15 -1.0
  outer loop
    vertex 166.60000000000096 12.200000000000001 127.95000000000005
    vertex 166.86541475346175 14.499257428722077 127.95000000000005
    vertex 166.86541475346175 12.200000000000001 127.95000000000005
  endloop
endfacet
facet normal 2.6604344572658947e-14 -2.0486230210392e-15 -1.0
  outer loop
    vertex 166.60000000000096 11.999999999999998 127.95000000000005
    vertex 161.60000000000093 11.999999999999998 127.94999999999992
    vertex 166.60000000000096 12.200000000000001 127.95000000000005
  endloop
endfacet
facet normal 0.0 -1.0 0.0
  outer loop
    vertex 180.60000000000022 12.200000000000001 159.95000000000036
    vertex 179.10541475346093 12.200000000000001 159.95000000000033
    vertex 180.6000000000009 12.200000000000001 129.95000000000036
  endloop
endfacet
facet normal 0.0 -1.0 0.0
  outer loop
    vertex 179.10541475346164 12.200000000000001 129.95000000000033
    vertex 166.60000000000096 12.200000000000001 127.95000000000005
    vertex 166.86541475346175 12.200000000000001 127.95000000000005
  endloop
endfacet
facet normal 0.0 -1.0 0.0
  outer loop
    vertex 166.60000000000096 12.200000000000001 127.95000000000005
    vertex 179.10541475346164 12.200000000000001 129.95000000000033
    vertex 166.60000000000014 12.200000000000001 161.95000000000002
  endloop
endfacet
facet normal 0.0 -1.0 0.0
  outer loop
    vertex 166.60000000000014 12.200000000000001 161.95000000000002
    vertex 179.10541475346164 12.200000000000001 129.95000000000033
    vertex 180.6000000000009 12.200000000000001 129.95000000000036
  endloop
endfacet
facet normal 0.0 -1.0 0.0
  outer loop
    vertex 166.60000000000014 12.200000000000001 161.95000000000002
    vertex 180.6000000000009 12.200000000000001 129.95000000000036
    vertex 179.10541475346093 12.200000000000001 159.95000000000033
  endloop
endfacet
facet normal 0.0 -1.0 0.0
  outer loop
    vertex 166.60000000000014 12.200000000000001 161.95000000000002
    vertex 179.10541475346093 12.200000000000001 159.95000000000033
    vertex 166.86541475346093 12.200000000000001 161.95000000000002
  endloop
endfacet
facet normal 2.3772650514786164e-14 0.0 -1.0
  outer loop
    vertex 180.6000000000009 15.489999999999998 129.95000000000036
    vertex 179.1000000000009 14.7 129.95000000000033
    vertex 179.1000000000009 15.489999999999998 129.95000000000033
  endloop
endfacet
facet normal 2.3772650514786164e-14 0.0 -1.0
  outer loop
    vertex 179.1000000000009 14.7 129.95000000000033
    vertex 180.6000000000009 15.489999999999998 129.95000000000036
    vertex 179.10541475346164 14.499257428722077 129.95000000000033
  endloop
endfacet
facet normal 2.3772650514786164e-14 0.0 -1.0
  outer loop
    vertex 179.10541475346164 14.499257428722077 129.95000000000033
    vertex 180.6000000000009 15.489999999999998 129.95000000000036
    vertex 179.10541475346164 12.200000000000001 129.95000000000033
  endloop
endfacet
facet normal 2.3772650514786164e-14 0.0 -1.0
  outer loop
    vertex 179.10541475346164 12.200000000000001 129.95000000000033
    vertex 180.6000000000009 15.489999999999998 129.95000000000036
    vertex 180.6000000000009 12.200000000000001 129.95000000000036
  endloop
endfacet
facet normal 8.453770231268292e-15 -1.0 7.530800550824063e-16
  outer loop
    vertex -0.4000000000000035 11.999999999999998 0.3499999999999999
    vertex -1.5999999999999999 11.999999999999998 11.3
    vertex -1.5999999999999999 11.999999999999998 0.34999999999999964
  endloop
endfacet
facet normal 8.453770231268292e-15 -1.0 7.530800550824063e-16
  outer loop
    vertex -1.5999999999999999 11.999999999999998 11.3
    vertex -0.4000000000000035 11.999999999999998 0.3499999999999999
    vertex 0.3177009178268379 12.00000000000002 11.300000000000002
  endloop
endfacet
facet normal -2.2170287143882458e-14 1.7071858508660095e-15 1.0
  outer loop
    vertex 161.60000000000014 11.999999999999998 161.9499999999999
    vertex 166.60000000000014 12.200000000000001 161.95000000000002
    vertex 166.86541475346093 14.499257428722077 161.95000000000002
  endloop
endfacet
facet normal -2.2170287143882458e-14 1.7071858508660095e-15 1.0
  outer loop
    vertex 166.60000000000014 12.200000000000001 161.95000000000002
    vertex 161.60000000000014 11.999999999999998 161.9499999999999
    vertex 166.60000000000014 11.999999999999998 161.95000000000002
  endloop
endfacet
facet normal -2.2170287143882458e-14 1.7071858508660095e-15 1.0
  outer loop
    vertex 166.86541475346093 14.499257428722077 161.95000000000002
    vertex 166.60000000000014 12.200000000000001 161.95000000000002
    vertex 166.86541475346093 12.200000000000001 161.95000000000002
  endloop
endfacet
facet normal 0.16126012059962422 -1.0285029295068001e-30 -0.9869119380695498
  outer loop
    vertex 179.10541475346164 14.499257428722077 129.95000000000033
    vertex 166.86541475346175 12.200000000000001 127.95000000000005
    vertex 166.86541475346175 14.499257428722077 127.95000000000005
  endloop
endfacet
facet normal 0.16126012059962422 -1.0285029295068001e-30 -0.9869119380695498
  outer loop
    vertex 166.86541475346175 12.200000000000001 127.95000000000005
    vertex 179.10541475346164 14.499257428722077 129.95000000000033
    vertex 179.10541475346164 12.200000000000001 129.95000000000033
  endloop
endfacet
facet normal 0.16126012059957706 4.56034317800191e-31 0.9869119380695573
  outer loop
    vertex 179.10541475346093 12.200000000000001 159.95000000000033
    vertex 166.86541475346093 14.499257428722077 161.95000000000002
    vertex 166.86541475346093 12.200000000000001 161.95000000000002
  endloop
endfacet
facet normal 0.16126012059957706 4.56034317800191e-31 0.9869119380695573
  outer loop
    vertex 166.86541475346093 14.499257428722077 161.95000000000002
    vertex 179.10541475346093 12.200000000000001 159.95000000000033
    vertex 179.10541475346093 14.499257428722077 159.95000000000033
  endloop
endfacet
facet normal 0.9978589232386036 2.913194578471114e-16 -0.06540312923014366
  outer loop
    vertex 44.399999999999984 11.999999999999998 0.35000000000000114
    vertex 45.44543794012037 0.0 16.30030068929039
    vertex 44.39999999999999 0.0 0.3499999999999999
  endloop
endfacet
facet normal 0.9914448613738105 1.4597226675170611e-16 -0.1305261922200518
  outer loop
    vertex 45.44543794012037 0.0 16.30030068929039
    vertex 44.399999999999984 11.999999999999998 0.35000000000000114
    vertex 45.44543794012037 11.999999999999998 16.30030068929039
  endloop
endfacet
facet normal 0.9914448613738105 1.4597226675170611e-16 -0.1305261922200518
  outer loop
    vertex 45.44543794012037 11.999999999999998 16.30030068929039
    vertex 44.399999999999984 11.999999999999998 0.35000000000000114
    vertex 45.11770091782685 11.999999999999998 11.3
  endloop
endfacet
facet normal 0.25881904510251447 0.0 -0.9659258262890701
  outer loop
    vertex 134.9723126884728 11.999999999999998 118.3861359725244
    vertex 119.83608456498676 0.0 113.24807887287957
    vertex 119.83608456498676 11.999999999999998 113.24807887287957
  endloop
endfacet
facet normal 0.3826834323650835 0.0 -0.9238795325112895
  outer loop
    vertex 119.83608456498676 0.0 113.24807887287957
    vertex 134.9723126884728 11.999999999999998 118.3861359725244
    vertex 134.9723126884728 0.0 118.3861359725244
  endloop
endfacet
facet normal 0.130526192220044 0.0 -0.9914448613738114
  outer loop
    vertex 150.64969931071064 11.999999999999998 121.5045620598798
    vertex 134.9723126884728 0.0 118.3861359725244
    vertex 134.9723126884728 11.999999999999998 118.3861359725244
  endloop
endfacet
facet normal 0.25881904510251447 0.0 -0.9659258262890701
  outer loop
    vertex 134.9723126884728 0.0 118.3861359725244
    vertex 150.64969931071064 11.999999999999998 121.5045620598798
    vertex 150.64969931071064 0.0 121.5045620598798
  endloop
endfacet
facet normal 0.0654031292301339 0.0 -0.9978589232386043
  outer loop
    vertex 166.60000000000107 11.999999999999998 122.55000000000004
    vertex 150.64969931071064 0.0 121.5045620598798
    vertex 150.64969931071064 11.999999999999998 121.5045620598798
  endloop
endfacet
facet normal 0.130526192220044 0.0 -0.9914448613738114
  outer loop
    vertex 150.64969931071064 0.0 121.5045620598798
    vertex 166.60000000000107 11.999999999999998 122.55000000000004
    vertex 166.60000000000107 0.0 122.55000000000004
  endloop
endfacet
facet normal 0.4999999999999952 0.0 -0.8660254037844415
  outer loop
    vertex 105.5000000000006 11.999999999999998 106.17830434245879
    vertex 92.20935337513481 0.0 97.29777818358933
    vertex 92.20935337513481 11.999999999999998 97.29777818358933
  endloop
endfacet
facet normal 0.6087614290087172 0.0 -0.793353340291238
  outer loop
    vertex 92.20935337513481 0.0 97.29777818358933
    vertex 105.5000000000006 11.999999999999998 106.17830434245879
    vertex 105.5000000000006 0.0 106.17830434245879
  endloop
endfacet
facet normal 0.3826834323650835 0.0 -0.9238795325112895
  outer loop
    vertex 119.83608456498676 11.999999999999998 113.24807887287957
    vertex 105.5000000000006 0.0 106.17830434245879
    vertex 105.5000000000006 11.999999999999998 106.17830434245879
  endloop
endfacet
facet normal 0.4999999999999952 0.0 -0.8660254037844415
  outer loop
    vertex 105.5000000000006 0.0 106.17830434245879
    vertex 119.83608456498676 11.999999999999998 113.24807887287957
    vertex 119.83608456498676 0.0 113.24807887287957
  endloop
endfacet
facet normal -0.130526192220044 0.0 0.9914448613738114
  outer loop
    vertex 150.33643644938255 0.0 123.88402972717694
    vertex 134.35114698022676 9.600000000000001 120.70435795561816
    vertex 134.35114698022676 0.0 120.70435795561816
  endloop
endfacet
facet normal -0.25881904510251386 0.0 0.9659258262890702
  outer loop
    vertex 134.35114698022676 9.600000000000001 120.70435795561816
    vertex 150.33643644938255 0.0 123.88402972717694
    vertex 150.33643644938255 9.600000000000001 123.88402972717694
  endloop
endfacet
facet normal -0.8660254037844373 0.0 0.5000000000000024
  outer loop
    vertex 58.69323468845911 9.600000000000001 62.650000000000304
    vertex 51.48461024909376 0.0 48.03235567269043
    vertex 58.69323468845911 0.0 62.650000000000304
  endloop
endfacet
facet normal -0.9238795325112861 0.0 0.38268343236509145
  outer loop
    vertex 51.48461024909376 0.0 48.03235567269043
    vertex 58.69323468845911 9.600000000000001 62.650000000000304
    vertex 51.48461024909376 9.600000000000001 48.03235567269043
  endloop
endfacet
facet normal -0.4999999999999951 0.0 0.8660254037844415
  outer loop
    vertex 104.3000000000006 0.0 108.25676531154143
    vertex 90.74832594551388 9.600000000000001 99.2018262002883
    vertex 90.74832594551388 0.0 99.2018262002883
  endloop
endfacet
facet normal -0.6087614290087172 0.0 0.7933533402912379
  outer loop
    vertex 90.74832594551388 9.600000000000001 99.2018262002883
    vertex 104.3000000000006 0.0 108.25676531154143
    vertex 104.3000000000006 9.600000000000001 108.25676531154143
  endloop
endfacet
facet normal 0.0 -1.0 0.0
  outer loop
    vertex 3.4081758178708124 0.0 21.8346112394205
    vertex -0.4000000000000035 0.0 0.3499999999999999
    vertex 1.9999999999999962 0.0 0.3499999999999999
  endloop
endfacet
facet normal 0.0 -1.0 0.0
  outer loop
    vertex -0.4000000000000035 0.0 0.3499999999999999
    vertex 3.4081758178708124 0.0 21.8346112394205
    vertex 1.0287081505736633 0.0 22.147874100748613
  endloop
endfacet
facet normal 0.0 -1.0 0.0
  outer loop
    vertex 1.0287081505736633 0.0 22.147874100748613
    vertex 3.4081758178708124 0.0 21.8346112394205
    vertex 7.608608992819362 0.0 42.951614823874934
  endloop
endfacet
facet normal 0.0 -1.0 0.0
  outer loop
    vertex 1.0287081505736633 0.0 22.147874100748613
    vertex 7.608608992819362 0.0 42.951614823874934
    vertex 5.290387009725598 0.0 43.572780532120966
  endloop
endfacet
facet normal 0.0 -1.0 0.0
  outer loop
    vertex 5.290387009725598 0.0 43.572780532120966
    vertex 7.608608992819362 0.0 42.951614823874934
    vertex 14.529428948642204 0.0 63.339692967293786
  endloop
endfacet
facet normal 0.0 -1.0 0.0
  outer loop
    vertex 5.290387009725598 0.0 43.572780532120966
    vertex 14.529428948642204 0.0 63.339692967293786
    vertex 12.31211807061511 0.0 64.25813320497001
  endloop
endfacet
facet normal 0.0 -1.0 0.0
  outer loop
    vertex 12.31211807061511 0.0 64.25813320497001
    vertex 14.529428948642204 0.0 63.339692967293786
    vertex 24.052218537081405 0.0 82.65000000000003
  endloop
endfacet
facet normal 0.0 -1.0 0.0
  outer loop
    vertex 12.31211807061511 0.0 64.25813320497001
    vertex 24.052218537081405 0.0 82.65000000000003
    vertex 21.97375756799873 0.0 83.85
  endloop
endfacet
facet normal 0.0 -1.0 0.0
  outer loop
    vertex 21.97375756799873 0.0 83.85
    vertex 24.052218537081405 0.0 82.65000000000003
    vertex 36.0140401880627 0.0 100.55213121483547
  endloop
endfacet
facet normal 0.0 -1.0 0.0
  outer loop
    vertex 21.97375756799873 0.0 83.85
    vertex 36.0140401880627 0.0 100.55213121483547
    vertex 34.10999217136372 0.0 102.01315864445634
  endloop
endfacet
facet normal 0.0 -1.0 0.0
  outer loop
    vertex 34.10999217136372 0.0 102.01315864445634
    vertex 36.0140401880627 0.0 100.55213121483547
    vertex 50.2102238166943 0.0 116.73977618330576
  endloop
endfacet
facet normal 0.0 -1.0 0.0
  outer loop
    vertex 34.10999217136372 0.0 102.01315864445634
    vertex 50.2102238166943 0.0 116.73977618330576
    vertex 48.51316754184655 0.0 118.43683245815345
  endloop
endfacet
facet normal 0.0 -1.0 0.0
  outer loop
    vertex 48.51316754184655 0.0 118.43683245815345
    vertex 50.2102238166943 0.0 116.73977618330576
    vertex 66.39786878516463 0.0 130.93595981193738
  endloop
endfacet
facet normal 0.0 -1.0 0.0
  outer loop
    vertex 48.51316754184655 0.0 118.43683245815345
    vertex 66.39786878516463 0.0 130.93595981193738
    vertex 64.93684135554363 0.0 132.8400078286363
  endloop
endfacet
facet normal 0.0 -1.0 0.0
  outer loop
    vertex 64.93684135554363 0.0 132.8400078286363
    vertex 66.39786878516463 0.0 130.93595981193738
    vertex 84.30000000000005 0.0 142.89778146291866
  endloop
endfacet
facet normal 0.0 -1.0 0.0
  outer loop
    vertex 64.93684135554363 0.0 132.8400078286363
    vertex 84.30000000000005 0.0 142.89778146291866
    vertex 83.09999999999998 0.0 144.97624243200127
  endloop
endfacet
facet normal 0.0 -1.0 0.0
  outer loop
    vertex 83.09999999999998 0.0 144.97624243200127
    vertex 84.30000000000005 0.0 142.89778146291866
    vertex 103.6103070327063 0.0 152.42057105135785
  endloop
endfacet
facet normal 0.0 -1.0 0.0
  outer loop
    vertex 83.09999999999998 0.0 144.97624243200127
    vertex 103.6103070327063 0.0 152.42057105135785
    vertex 102.69186679503 0.0 154.63788192938492
  endloop
endfacet
facet normal 0.0 -1.0 0.0
  outer loop
    vertex 102.69186679503 0.0 154.63788192938492
    vertex 103.6103070327063 0.0 152.42057105135785
    vertex 123.99838517612517 0.0 159.34139100718068
  endloop
endfacet
facet normal 0.0 -1.0 0.0
  outer loop
    vertex 102.69186679503 0.0 154.63788192938492
    vertex 123.99838517612517 0.0 159.34139100718068
    vertex 123.37721946787903 0.0 161.6596129902744
  endloop
endfacet
facet normal 0.0 -1.0 0.0
  outer loop
    vertex 123.37721946787903 0.0 161.6596129902744
    vertex 123.99838517612517 0.0 159.34139100718068
    vertex 145.1153887605796 0.0 163.54182418212923
  endloop
endfacet
facet normal 0.0 -1.0 0.0
  outer loop
    vertex 123.37721946787903 0.0 161.6596129902744
    vertex 145.1153887605796 0.0 163.54182418212923
    vertex 144.8021258992514 0.0 165.92129184942635
  endloop
endfacet
facet normal 0.0 -1.0 0.0
  outer loop
    vertex 144.8021258992514 0.0 165.92129184942635
    vertex 145.1153887605796 0.0 163.54182418212923
    vertex 166.6000000000001 0.0 164.95000000000002
  endloop
endfacet
facet normal 0.0 -1.0 0.0
  outer loop
    vertex 144.8021258992514 0.0 165.92129184942635
    vertex 166.6000000000001 0.0 164.95000000000002
    vertex 166.60000000000002 0.0 167.35000000000002
  endloop
endfacet
facet normal -0.7071067811865447 0.0 0.7071067811865503
  outer loop
    vertex 78.49449506415654 9.600000000000001 88.4555049358442
    vertex 67.74817379971236 0.0 76.20167405448694
    vertex 78.49449506415654 0.0 88.4555049358442
  endloop
endfacet
facet normal -0.7933533402912332 0.0 0.6087614290087235
  outer loop
    vertex 67.74817379971236 0.0 76.20167405448694
    vertex 78.49449506415654 9.600000000000001 88.4555049358442
    vertex 67.74817379971236 9.600000000000001 76.20167405448694
  endloop
endfacet
facet normal -0.9238795325112861 0.0 0.38268343236509145
  outer loop
    vertex 51.48461024909376 9.600000000000001 48.03235567269043
    vertex 46.24564204438213 0.0 32.59885301977425
    vertex 51.48461024909376 0.0 48.03235567269043
  endloop
endfacet
facet normal -0.965925826289068 0.0 0.2588190451025221
  outer loop
    vertex 46.24564204438213 0.0 32.59885301977425
    vertex 51.48461024909376 9.600000000000001 48.03235567269043
    vertex 46.24564204438213 9.600000000000001 32.59885301977425
  endloop
endfacet
facet normal -0.7933533402912332 0.0 0.6087614290087235
  outer loop
    vertex 67.74817379971236 9.600000000000001 76.20167405448694
    vertex 58.69323468845911 0.0 62.650000000000304
    vertex 67.74817379971236 0.0 76.20167405448694
  endloop
endfacet
facet normal -0.8660254037844373 0.0 0.5000000000000024
  outer loop
    vertex 58.69323468845911 0.0 62.650000000000304
    vertex 67.74817379971236 9.600000000000001 76.20167405448694
    vertex 58.69323468845911 9.600000000000001 62.650000000000304
  endloop
endfacet
facet normal -0.6087614290087172 0.0 0.7933533402912379
  outer loop
    vertex 90.74832594551388 0.0 99.2018262002883
    vertex 78.49449506415654 9.600000000000001 88.4555049358442
    vertex 78.49449506415654 0.0 88.4555049358442
  endloop
endfacet
facet normal -0.7071067811865447 0.0 0.7071067811865503
  outer loop
    vertex 78.49449506415654 9.600000000000001 88.4555049358442
    vertex 90.74832594551388 0.0 99.2018262002883
    vertex 90.74832594551388 9.600000000000001 99.2018262002883
  endloop
endfacet
facet normal -0.3826834323650835 0.0 0.9238795325112895
  outer loop
    vertex 118.91764432731057 0.0 115.46538975090667
    vertex 104.3000000000006 9.600000000000001 108.25676531154143
    vertex 104.3000000000006 0.0 108.25676531154143
  endloop
endfacet
facet normal -0.4999999999999951 0.0 0.8660254037844415
  outer loop
    vertex 104.3000000000006 9.600000000000001 108.25676531154143
    vertex 118.91764432731057 0.0 115.46538975090667
    vertex 118.91764432731057 9.600000000000001 115.46538975090667
  endloop
endfacet
facet normal -0.25881904510251386 0.0 0.9659258262890702
  outer loop
    vertex 134.35114698022676 0.0 120.70435795561816
    vertex 118.91764432731057 9.600000000000001 115.46538975090667
    vertex 118.91764432731057 0.0 115.46538975090667
  endloop
endfacet
facet normal -0.3826834323650835 0.0 0.9238795325112895
  outer loop
    vertex 118.91764432731057 9.600000000000001 115.46538975090667
    vertex 134.35114698022676 0.0 120.70435795561816
    vertex 134.35114698022676 9.600000000000001 120.70435795561816
  endloop
endfacet
facet normal 1.0 0.0 0.0
  outer loop
    vertex 166.60000000000107 11.999999999999998 122.55000000000004
    vertex 166.60000000000107 0.0 124.95000000000003
    vertex 166.60000000000107 0.0 122.55000000000004
  endloop
endfacet
facet normal 1.0 0.0 0.0
  outer loop
    vertex 166.60000000000107 0.0 124.95000000000003
    vertex 166.60000000000107 11.999999999999998 122.55000000000004
    vertex 166.60000000000107 9.600000000000001 124.95000000000003
  endloop
endfacet
facet normal 1.0 0.0 0.0
  outer loop
    vertex 166.60000000000107 9.600000000000001 124.95000000000003
    vertex 166.60000000000107 11.999999999999998 122.55000000000004
    vertex 166.60000000000107 11.999999999999998 124.95000000000003
  endloop
endfacet
facet normal -0.06540312923013503 0.0 0.997858923238604
  outer loop
    vertex 166.60000000000107 0.0 124.95000000000003
    vertex 150.33643644938255 9.600000000000001 123.88402972717694
    vertex 150.33643644938255 0.0 123.88402972717694
  endloop
endfacet
facet normal -0.130526192220044 0.0 0.9914448613738114
  outer loop
    vertex 150.33643644938255 9.600000000000001 123.88402972717694
    vertex 166.60000000000107 0.0 124.95000000000003
    vertex 166.60000000000107 9.600000000000001 124.95000000000003
  endloop
endfacet
facet normal -0.9914448613738105 0.0 0.1305261922200524
  outer loop
    vertex 43.06597027282322 9.600000000000001 16.613563550618515
    vertex 41.99999999999999 0.0 0.3499999999999999
    vertex 43.06597027282322 0.0 16.613563550618515
  endloop
endfacet
facet normal -0.9978589232386036 0.0 0.0654031292301433
  outer loop
    vertex 41.99999999999999 0.0 0.3499999999999999
    vertex 43.06597027282322 9.600000000000001 16.613563550618515
    vertex 41.99999999999999 9.600000000000001 0.3499999999999999
  endloop
endfacet
facet normal 0.0 -1.0 0.0
  outer loop
    vertex 45.44543794012037 0.0 16.30030068929039
    vertex 41.99999999999999 0.0 0.3499999999999999
    vertex 44.39999999999999 0.0 0.3499999999999999
  endloop
endfacet
facet normal 0.0 -1.0 0.0
  outer loop
    vertex 41.99999999999999 0.0 0.3499999999999999
    vertex 45.44543794012037 0.0 16.30030068929039
    vertex 43.06597027282322 0.0 16.613563550618515
  endloop
endfacet
facet normal 0.0 -1.0 0.0
  outer loop
    vertex 43.06597027282322 0.0 16.613563550618515
    vertex 45.44543794012037 0.0 16.30030068929039
    vertex 48.56386402747587 0.0 31.977687311528204
  endloop
endfacet
facet normal 0.0 -1.0 0.0
  outer loop
    vertex 43.06597027282322 0.0 16.613563550618515
    vertex 48.56386402747587 0.0 31.977687311528204
    vertex 46.24564204438213 0.0 32.59885301977425
  endloop
endfacet
facet normal 0.0 -1.0 0.0
  outer loop
    vertex 46.24564204438213 0.0 32.59885301977425
    vertex 48.56386402747587 0.0 31.977687311528204
    vertex 53.70192112712083 0.0 47.11391543501421
  endloop
endfacet
facet normal 0.0 -1.0 0.0
  outer loop
    vertex 46.24564204438213 0.0 32.59885301977425
    vertex 53.70192112712083 0.0 47.11391543501421
    vertex 51.48461024909376 0.0 48.03235567269043
  endloop
endfacet
facet normal 0.0 -1.0 0.0
  outer loop
    vertex 51.48461024909376 0.0 48.03235567269043
    vertex 53.70192112712083 0.0 47.11391543501421
    vertex 60.771695657541756 0.0 61.450000000000294
  endloop
endfacet
facet normal 0.0 -1.0 0.0
  outer loop
    vertex 51.48461024909376 0.0 48.03235567269043
    vertex 60.771695657541756 0.0 61.450000000000294
    vertex 58.69323468845911 0.0 62.650000000000304
  endloop
endfacet
facet normal 0.0 -1.0 0.0
  outer loop
    vertex 58.69323468845911 0.0 62.650000000000304
    vertex 60.771695657541756 0.0 61.450000000000294
    vertex 69.65222181641131 0.0 74.74064662486602
  endloop
endfacet
facet normal 0.0 -1.0 0.0
  outer loop
    vertex 58.69323468845911 0.0 62.650000000000304
    vertex 69.65222181641131 0.0 74.74064662486602
    vertex 67.74817379971236 0.0 76.20167405448694
  endloop
endfacet
facet normal 0.0 -1.0 0.0
  outer loop
    vertex 67.74817379971236 0.0 76.20167405448694
    vertex 69.65222181641131 0.0 74.74064662486602
    vertex 80.19155133900425 0.0 86.75844866099648
  endloop
endfacet
facet normal 0.0 -1.0 0.0
  outer loop
    vertex 67.74817379971236 0.0 76.20167405448694
    vertex 80.19155133900425 0.0 86.75844866099648
    vertex 78.49449506415654 0.0 88.4555049358442
  endloop
endfacet
facet normal 0.0 -1.0 0.0
  outer loop
    vertex 78.49449506415654 0.0 88.4555049358442
    vertex 80.19155133900425 0.0 86.75844866099648
    vertex 92.20935337513481 0.0 97.29777818358933
  endloop
endfacet
facet normal 0.0 -1.0 0.0
  outer loop
    vertex 78.49449506415654 0.0 88.4555049358442
    vertex 92.20935337513481 0.0 97.29777818358933
    vertex 90.74832594551388 0.0 99.2018262002883
  endloop
endfacet
facet normal 0.0 -1.0 0.0
  outer loop
    vertex 90.74832594551388 0.0 99.2018262002883
    vertex 92.20935337513481 0.0 97.29777818358933
    vertex 105.5000000000006 0.0 106.17830434245879
  endloop
endfacet
facet normal 0.0 -1.0 0.0
  outer loop
    vertex 90.74832594551388 0.0 99.2018262002883
    vertex 105.5000000000006 0.0 106.17830434245879
    vertex 104.3000000000006 0.0 108.25676531154143
  endloop
endfacet
facet normal 0.0 -1.0 0.0
  outer loop
    vertex 104.3000000000006 0.0 108.25676531154143
    vertex 105.5000000000006 0.0 106.17830434245879
    vertex 119.83608456498676 0.0 113.24807887287957
  endloop
endfacet
facet normal 0.0 -1.0 0.0
  outer loop
    vertex 104.3000000000006 0.0 108.25676531154143
    vertex 119.83608456498676 0.0 113.24807887287957
    vertex 118.91764432731057 0.0 115.46538975090667
  endloop
endfacet
facet normal 0.0 -1.0 0.0
  outer loop
    vertex 118.91764432731057 0.0 115.46538975090667
    vertex 119.83608456498676 0.0 113.24807887287957
    vertex 134.9723126884728 0.0 118.3861359725244
  endloop
endfacet
facet normal 0.0 -1.0 0.0
  outer loop
    vertex 118.91764432731057 0.0 115.46538975090667
    vertex 134.9723126884728 0.0 118.3861359725244
    vertex 134.35114698022676 0.0 120.70435795561816
  endloop
endfacet
facet normal 0.0 -1.0 0.0
  outer loop
    vertex 134.35114698022676 0.0 120.70435795561816
    vertex 134.9723126884728 0.0 118.3861359725244
    vertex 150.64969931071064 0.0 121.5045620598798
  endloop
endfacet
facet normal 0.0 -1.0 0.0
  outer loop
    vertex 134.35114698022676 0.0 120.70435795561816
    vertex 150.64969931071064 0.0 121.5045620598798
    vertex 150.33643644938255 0.0 123.88402972717694
  endloop
endfacet
facet normal 0.0 -1.0 0.0
  outer loop
    vertex 150.33643644938255 0.0 123.88402972717694
    vertex 150.64969931071064 0.0 121.5045620598798
    vertex 166.60000000000107 0.0 122.55000000000004
  endloop
endfacet
facet normal 0.0 -1.0 0.0
  outer loop
    vertex 150.33643644938255 0.0 123.88402972717694
    vertex 166.60000000000107 0.0 122.55000000000004
    vertex 166.60000000000107 0.0 124.95000000000003
  endloop
endfacet
facet normal -0.965925826289068 0.0 0.2588190451025221
  outer loop
    vertex 46.24564204438213 9.600000000000001 32.59885301977425
    vertex 43.06597027282322 0.0 16.613563550618515
    vertex 46.24564204438213 0.0 32.59885301977425
  endloop
endfacet
facet normal -0.9914448613738105 0.0 0.1305261922200524
  outer loop
    vertex 43.06597027282322 0.0 16.613563550618515
    vertex 46.24564204438213 9.600000000000001 32.59885301977425
    vertex 43.06597027282322 9.600000000000001 16.613563550618515
  endloop
endfacet
facet normal -3.3774237374589857e-18 -2.4893814059910116e-18 1.0
  outer loop
    vertex 36.999999999999986 -4.999999999999999 0.3499999999999999
    vertex 41.99999999999999 0.0 0.3499999999999999
    vertex 36.999999999999986 4.999999999999998 0.3499999999999999
  endloop
endfacet
facet normal -3.3774237374589857e-18 -2.4893814059910116e-18 1.0
  outer loop
    vertex 41.99999999999999 0.0 0.3499999999999999
    vertex 36.999999999999986 -4.999999999999999 0.3499999999999999
    vertex 48.999999999999986 -4.999999999999999 0.3499999999999999
  endloop
endfacet
facet normal -3.3774237374589857e-18 -2.4893814059910116e-18 1.0
  outer loop
    vertex 41.99999999999999 0.0 0.3499999999999999
    vertex 48.999999999999986 -4.999999999999999 0.3499999999999999
    vertex 44.39999999999999 0.0 0.3499999999999999
  endloop
endfacet
facet normal -3.3774237374589857e-18 -2.4893814059910116e-18 1.0
  outer loop
    vertex 44.39999999999999 0.0 0.3499999999999999
    vertex 48.999999999999986 -4.999999999999999 0.3499999999999999
    vertex 45.59999999999999 11.999999999999998 0.3499999999999999
  endloop
endfacet
facet normal -3.3774237374589857e-18 -2.4893814059910116e-18 1.0
  outer loop
    vertex 45.59999999999999 11.999999999999998 0.3499999999999999
    vertex 48.999999999999986 -4.999999999999999 0.3499999999999999
    vertex 45.59999999999999 17.799999999999997 0.3499999999999999
  endloop
endfacet
facet normal -3.3774237374589857e-18 -2.4893814059910116e-18 1.0
  outer loop
    vertex -5.000000000000001 22.400000000000002 0.3499999999999999
    vertex -1.5999999999999999 17.799999999999997 0.3499999999999999
    vertex 48.999999999999986 22.400000000000002 0.3499999999999999
  endloop
endfacet
facet normal -3.3774237374589857e-18 -2.4893814059910116e-18 1.0
  outer loop
    vertex -1.5999999999999999 17.799999999999997 0.3499999999999999
    vertex -5.000000000000001 22.400000000000002 0.3499999999999999
    vertex -4.999999999999999 -4.999999999999998 0.3499999999999999
  endloop
endfacet
facet normal -3.3774237374589857e-18 -2.4893814059910116e-18 1.0
  outer loop
    vertex -1.5999999999999999 17.799999999999997 0.3499999999999999
    vertex -4.999999999999999 -4.999999999999998 0.3499999999999999
    vertex -1.5999999999999999 11.999999999999998 0.34999999999999964
  endloop
endfacet
facet normal -3.3774237374589857e-18 -2.4893814059910116e-18 1.0
  outer loop
    vertex 48.999999999999986 22.400000000000002 0.3499999999999999
    vertex -1.5999999999999999 17.799999999999997 0.3499999999999999
    vertex 45.59999999999999 17.799999999999997 0.3499999999999999
  endloop
endfacet
facet normal -3.3774237374589857e-18 -2.4893814059910116e-18 1.0
  outer loop
    vertex 48.999999999999986 22.400000000000002 0.3499999999999999
    vertex 45.59999999999999 17.799999999999997 0.3499999999999999
    vertex 48.999999999999986 -4.999999999999999 0.3499999999999999
  endloop
endfacet
facet normal -3.3774237374589857e-18 -2.4893814059910116e-18 1.0
  outer loop
    vertex 45.59999999999999 11.999999999999998 0.3499999999999999
    vertex 44.399999999999984 11.999999999999998 0.35000000000000114
    vertex 44.39999999999999 0.0 0.3499999999999999
  endloop
endfacet
facet normal -3.3774237374589857e-18 -2.4893814059910116e-18 1.0
  outer loop
    vertex -4.999999999999999 -4.999999999999998 0.3499999999999999
    vertex -0.4000000000000035 0.0 0.3499999999999999
    vertex -1.5999999999999999 11.999999999999998 0.34999999999999964
  endloop
endfacet
facet normal -3.3774237374589857e-18 -2.4893814059910116e-18 1.0
  outer loop
    vertex -0.4000000000000035 0.0 0.3499999999999999
    vertex -4.999999999999999 -4.999999999999998 0.3499999999999999
    vertex 6.999999999999993 -4.999999999999998 0.3499999999999999
  endloop
endfacet
facet normal -3.3774237374589857e-18 -2.4893814059910116e-18 1.0
  outer loop
    vertex -0.4000000000000035 0.0 0.3499999999999999
    vertex 6.999999999999993 -4.999999999999998 0.3499999999999999
    vertex 1.9999999999999962 0.0 0.3499999999999999
  endloop
endfacet
facet normal -3.3774237374589857e-18 -2.4893814059910116e-18 1.0
  outer loop
    vertex 1.9999999999999962 0.0 0.3499999999999999
    vertex 6.999999999999993 -4.999999999999998 0.3499999999999999
    vertex 1.9999999999999962 9.600000000000001 0.3499999999999999
  endloop
endfacet
facet normal -3.3774237374589857e-18 -2.4893814059910116e-18 1.0
  outer loop
    vertex 1.9999999999999962 9.600000000000001 0.3499999999999999
    vertex 6.999999999999993 -4.999999999999998 0.3499999999999999
    vertex 6.999999999999993 4.999999999999998 0.3499999999999999
  endloop
endfacet
facet normal -3.3774237374589857e-18 -2.4893814059910116e-18 1.0
  outer loop
    vertex 1.9999999999999962 9.600000000000001 0.3499999999999999
    vertex 6.999999999999993 4.999999999999998 0.3499999999999999
    vertex 41.99999999999999 9.600000000000001 0.3499999999999999
  endloop
endfacet
facet normal -3.3774237374589857e-18 -2.4893814059910116e-18 1.0
  outer loop
    vertex 41.99999999999999 9.600000000000001 0.3499999999999999
    vertex 6.999999999999993 4.999999999999998 0.3499999999999999
    vertex 36.999999999999986 4.999999999999998 0.3499999999999999
  endloop
endfacet
facet normal -3.3774237374589857e-18 -2.4893814059910116e-18 1.0
  outer loop
    vertex 41.99999999999999 9.600000000000001 0.3499999999999999
    vertex 36.999999999999986 4.999999999999998 0.3499999999999999
    vertex 41.99999999999999 0.0 0.3499999999999999
  endloop
endfacet
facet normal -3.3774237374589857e-18 -2.4893814059910116e-18 1.0
  outer loop
    vertex -0.4000000000000035 11.999999999999998 0.3499999999999999
    vertex -1.5999999999999999 11.999999999999998 0.34999999999999964
    vertex -0.4000000000000035 0.0 0.3499999999999999
  endloop
endfacet
facet normal -0.2588190451025204 -5.042993415753864e-16 0.9659258262890685
  outer loop
    vertex 123.37721946787903 0.0 161.6596129902744
    vertex 144.80212589925137 12.000000000000004 165.92129184942635
    vertex 123.37721946787902 12.000000000000009 161.6596129902744
  endloop
endfacet
facet normal -0.13052619222005166 -2.526173571900589e-16 0.9914448613738105
  outer loop
    vertex 144.80212589925137 12.000000000000004 165.92129184942635
    vertex 123.37721946787903 0.0 161.6596129902744
    vertex 144.8021258992514 0.0 165.92129184942635
  endloop
endfacet
facet normal -0.3826834323650897 -7.23764389954825e-16 0.9238795325112867
  outer loop
    vertex 102.69186679503 0.0 154.63788192938492
    vertex 123.37721946787902 12.000000000000009 161.6596129902744
    vertex 102.69186679502998 12.000000000000014 154.63788192938492
  endloop
endfacet
facet normal -0.25881904510252063 -5.042993415753868e-16 0.9659258262890684
  outer loop
    vertex 123.37721946787902 12.000000000000009 161.6596129902744
    vertex 102.69186679503 0.0 154.63788192938492
    vertex 123.37721946787903 0.0 161.6596129902744
  endloop
endfacet
facet normal -0.5000000000000003 -9.31730983054486e-16 0.8660254037844387
  outer loop
    vertex 83.09999999999998 0.0 144.97624243200127
    vertex 102.69186679502998 12.000000000000014 154.63788192938492
    vertex 83.09999999999997 12.00000000000002 144.97624243200127
  endloop
endfacet
facet normal -0.38268343236509 -7.237643899548254e-16 0.9238795325112868
  outer loop
    vertex 102.69186679502998 12.000000000000014 154.63788192938492
    vertex 83.09999999999998 0.0 144.97624243200127
    vertex 102.69186679503 0.0 154.63788192938492
  endloop
endfacet
facet normal -0.6087614290087207 -1.1653089260638933e-15 0.7933533402912353
  outer loop
    vertex 64.93684135554363 0.0 132.8400078286363
    vertex 83.09999999999997 12.00000000000002 144.97624243200127
    vertex 64.9368413555436 12.000000000000027 132.8400078286363
  endloop
endfacet
facet normal -0.5000000000000003 -9.317309830544859e-16 0.8660254037844385
  outer loop
    vertex 83.09999999999997 12.00000000000002 144.97624243200127
    vertex 64.93684135554363 0.0 132.8400078286363
    vertex 83.09999999999998 0.0 144.97624243200127
  endloop
endfacet
facet normal -0.7071067811865478 -1.3337380008696194e-15 0.7071067811865474
  outer loop
    vertex 48.51316754184655 0.0 118.43683245815345
    vertex 64.9368413555436 12.000000000000027 132.8400078286363
    vertex 48.51316754184653 12.000000000000032 118.43683245815345
  endloop
endfacet
facet normal -0.6087614290087208 -1.1653089260638935e-15 0.793353340291235
  outer loop
    vertex 64.9368413555436 12.000000000000027 132.8400078286363
    vertex 48.51316754184655 0.0 118.43683245815345
    vertex 64.93684135554363 0.0 132.8400078286363
  endloop
endfacet
facet normal -0.7071067811865478 -1.3337380008696192e-15 0.7071067811865472
  outer loop
    vertex 48.51316754184653 12.000000000000032 118.43683245815345
    vertex 34.10999217136372 0.0 102.01315864445634
    vertex 48.51316754184655 0.0 118.43683245815345
  endloop
endfacet
facet normal -0.7933533402912353 -1.4951991430172733e-15 0.6087614290087204
  outer loop
    vertex 34.10999217136372 0.0 102.01315864445634
    vertex 48.51316754184653 12.000000000000032 118.43683245815345
    vertex 34.10999217136369 12.000000000000034 102.01315864445634
  endloop
endfacet
facet normal -0.7933533402912354 -1.4951991430172737e-15 0.6087614290087203
  outer loop
    vertex 34.10999217136369 12.000000000000034 102.01315864445634
    vertex 21.97375756799873 0.0 83.85
    vertex 34.10999217136372 0.0 102.01315864445634
  endloop
endfacet
facet normal -0.8660254037844388 -1.6461067909062413e-15 0.5
  outer loop
    vertex 21.97375756799873 0.0 83.85
    vertex 34.10999217136369 12.000000000000034 102.01315864445634
    vertex 21.97375756799871 12.000000000000037 83.85
  endloop
endfacet
facet normal -0.8660254037844388 -1.6461067909062415e-15 0.5
  outer loop
    vertex 21.97375756799871 12.000000000000037 83.85
    vertex 12.31211807061511 0.0 64.25813320497001
    vertex 21.97375756799873 0.0 83.85
  endloop
endfacet
facet normal -0.923879532511287 -1.742823503900435e-15 0.38268343236508967
  outer loop
    vertex 12.31211807061511 0.0 64.25813320497001
    vertex 21.97375756799871 12.000000000000037 83.85
    vertex 12.312118070615087 12.00000000000004 64.25813320497001
  endloop
endfacet
facet normal -0.923879532511287 -1.7428235039004345e-15 0.38268343236508956
  outer loop
    vertex 12.312118070615087 12.00000000000004 64.25813320497001
    vertex 5.290387009725598 0.0 43.572780532120966
    vertex 12.31211807061511 0.0 64.25813320497001
  endloop
endfacet
facet normal -0.9659258262890684 -1.8206774583832236e-15 0.25881904510252063
  outer loop
    vertex 5.290387009725598 0.0 43.572780532120966
    vertex 12.312118070615087 12.00000000000004 64.25813320497001
    vertex 5.290387009725575 12.000000000000043 43.572780532120966
  endloop
endfacet
facet normal -0.9659258262890684 -1.820677458383224e-15 0.25881904510252063
  outer loop
    vertex 5.290387009725575 12.000000000000043 43.572780532120966
    vertex 1.0287081505736633 0.0 22.147874100748613
    vertex 5.290387009725598 0.0 43.572780532120966
  endloop
endfacet
facet normal -0.9914448613738106 -1.5056088008740595e-15 0.1305261922200515
  outer loop
    vertex 1.0287081505736633 0.0 22.147874100748613
    vertex 5.290387009725575 12.000000000000043 43.572780532120966
    vertex 1.0287081505736408 12.000000000000043 22.147874100748613
  endloop
endfacet
facet normal -0.9914448613738106 -1.5056088008740595e-15 0.13052619222005152
  outer loop
    vertex 1.0287081505736408 12.000000000000043 22.147874100748613
    vertex -0.4000000000000035 0.0 0.3499999999999999
    vertex 1.0287081505736633 0.0 22.147874100748613
  endloop
endfacet
facet normal -0.9978589232386036 -1.1753210547653937e-15 0.06540312923014281
  outer loop
    vertex -0.4000000000000035 0.0 0.3499999999999999
    vertex 1.0287081505736408 12.000000000000043 22.147874100748613
    vertex 0.3177009178268379 12.00000000000002 11.300000000000002
  endloop
endfacet
facet normal -0.9978589232386036 -1.1753210547653937e-15 0.06540312923014281
  outer loop
    vertex -0.4000000000000035 0.0 0.3499999999999999
    vertex 0.3177009178268379 12.00000000000002 11.300000000000002
    vertex -0.4000000000000035 11.999999999999998 0.3499999999999999
  endloop
endfacet
facet normal 0.9978589232386036 0.0 -0.0654031292301435
  outer loop
    vertex 1.9999999999999962 9.600000000000001 0.3499999999999999
    vertex 3.4081758178708124 0.0 21.8346112394205
    vertex 1.9999999999999962 0.0 0.3499999999999999
  endloop
endfacet
facet normal 0.9914448613738105 0.0 -0.1305261922200517
  outer loop
    vertex 3.4081758178708124 0.0 21.8346112394205
    vertex 1.9999999999999962 9.600000000000001 0.3499999999999999
    vertex 3.4081758178708124 9.600000000000001 21.8346112394205
  endloop
endfacet
facet normal 0.9914448613738105 0.0 -0.1305261922200517
  outer loop
    vertex 3.4081758178708124 9.600000000000001 21.8346112394205
    vertex 7.608608992819362 0.0 42.951614823874934
    vertex 3.4081758178708124 0.0 21.8346112394205
  endloop
endfacet
facet normal 0.9659258262890684 0.0 -0.2588190451025208
  outer loop
    vertex 7.608608992819362 0.0 42.951614823874934
    vertex 3.4081758178708124 9.600000000000001 21.8346112394205
    vertex 7.608608992819362 9.600000000000001 42.951614823874934
  endloop
endfacet
facet normal 0.9659258262890684 0.0 -0.2588190451025208
  outer loop
    vertex 7.608608992819362 9.600000000000001 42.951614823874934
    vertex 14.529428948642204 0.0 63.339692967293786
    vertex 7.608608992819362 0.0 42.951614823874934
  endloop
endfacet
facet normal 0.9238795325112868 0.0 -0.3826834323650898
  outer loop
    vertex 14.529428948642204 0.0 63.339692967293786
    vertex 7.608608992819362 9.600000000000001 42.951614823874934
    vertex 14.529428948642204 9.600000000000001 63.339692967293786
  endloop
endfacet
facet normal 0.9238795325112868 0.0 -0.3826834323650898
  outer loop
    vertex 14.529428948642204 9.600000000000001 63.339692967293786
    vertex 24.052218537081405 0.0 82.65000000000003
    vertex 14.529428948642204 0.0 63.339692967293786
  endloop
endfacet
facet normal 0.8660254037844388 0.0 -0.49999999999999967
  outer loop
    vertex 24.052218537081405 0.0 82.65000000000003
    vertex 14.529428948642204 9.600000000000001 63.339692967293786
    vertex 24.052218537081405 9.600000000000001 82.65000000000003
  endloop
endfacet
facet normal 0.8660254037844388 0.0 -0.49999999999999967
  outer loop
    vertex 24.052218537081405 9.600000000000001 82.65000000000003
    vertex 36.0140401880627 0.0 100.55213121483547
    vertex 24.052218537081405 0.0 82.65000000000003
  endloop
endfacet
facet normal 0.793353340291235 0.0 -0.6087614290087208
  outer loop
    vertex 36.0140401880627 0.0 100.55213121483547
    vertex 24.052218537081405 9.600000000000001 82.65000000000003
    vertex 36.0140401880627 9.600000000000001 100.55213121483547
  endloop
endfacet
facet normal 0.793353340291235 0.0 -0.6087614290087208
  outer loop
    vertex 36.0140401880627 9.600000000000001 100.55213121483547
    vertex 50.2102238166943 0.0 116.73977618330576
    vertex 36.0140401880627 0.0 100.55213121483547
  endloop
endfacet
facet normal 0.7071067811865472 0.0 -0.7071067811865479
  outer loop
    vertex 50.2102238166943 0.0 116.73977618330576
    vertex 36.0140401880627 9.600000000000001 100.55213121483547
    vertex 50.2102238166943 9.600000000000001 116.73977618330576
  endloop
endfacet
facet normal -0.13052619222005143 -2.526173571900585e-16 0.9914448613738105
  outer loop
    vertex 144.8021258992514 0.0 165.92129184942635
    vertex 166.60000000000002 11.999999999999998 167.35000000000002
    vertex 144.80212589925137 12.000000000000004 165.92129184942635
  endloop
endfacet
facet normal -0.06540312923014308 -1.1943990685999058e-16 0.9978589232386036
  outer loop
    vertex 166.60000000000002 11.999999999999998 167.35000000000002
    vertex 144.8021258992514 0.0 165.92129184942635
    vertex 166.60000000000002 0.0 167.35000000000002
  endloop
endfacet
facet normal 0.06540312923014246 0.0 -0.9978589232386036
  outer loop
    vertex 166.6000000000001 9.600000000000001 164.95000000000002
    vertex 145.1153887605796 0.0 163.54182418212923
    vertex 145.1153887605796 9.600000000000001 163.54182418212923
  endloop
endfacet
facet normal 0.1305261922200511 0.0 -0.9914448613738105
  outer loop
    vertex 145.1153887605796 0.0 163.54182418212923
    vertex 166.6000000000001 9.600000000000001 164.95000000000002
    vertex 166.6000000000001 0.0 164.95000000000002
  endloop
endfacet
facet normal 0.1305261922200511 0.0 -0.9914448613738105
  outer loop
    vertex 145.1153887605796 9.600000000000001 163.54182418212923
    vertex 123.99838517612517 0.0 159.34139100718068
    vertex 123.99838517612517 9.600000000000001 159.34139100718068
  endloop
endfacet
facet normal 0.25881904510252013 0.0 -0.9659258262890685
  outer loop
    vertex 123.99838517612517 0.0 159.34139100718068
    vertex 145.1153887605796 9.600000000000001 163.54182418212923
    vertex 145.1153887605796 0.0 163.54182418212923
  endloop
endfacet
facet normal 0.25881904510252013 0.0 -0.9659258262890685
  outer loop
    vertex 123.99838517612517 9.600000000000001 159.34139100718068
    vertex 103.6103070327063 0.0 152.42057105135785
    vertex 103.6103070327063 9.600000000000001 152.42057105135785
  endloop
endfacet
facet normal 0.3826834323650891 0.0 -0.9238795325112871
  outer loop
    vertex 103.6103070327063 0.0 152.42057105135785
    vertex 123.99838517612517 9.600000000000001 159.34139100718068
    vertex 123.99838517612517 0.0 159.34139100718068
  endloop
endfacet
facet normal 0.3826834323650891 0.0 -0.9238795325112871
  outer loop
    vertex 103.6103070327063 9.600000000000001 152.42057105135785
    vertex 84.30000000000005 0.0 142.89778146291866
    vertex 84.30000000000005 9.600000000000001 142.89778146291866
  endloop
endfacet
facet normal 0.49999999999999983 0.0 -0.8660254037844388
  outer loop
    vertex 84.30000000000005 0.0 142.89778146291866
    vertex 103.6103070327063 9.600000000000001 152.42057105135785
    vertex 103.6103070327063 0.0 152.42057105135785
  endloop
endfacet
facet normal 0.49999999999999983 0.0 -0.8660254037844388
  outer loop
    vertex 84.30000000000005 9.600000000000001 142.89778146291866
    vertex 66.39786878516463 0.0 130.93595981193738
    vertex 66.39786878516463 9.600000000000001 130.93595981193738
  endloop
endfacet
facet normal 0.6087614290087207 0.0 -0.7933533402912353
  outer loop
    vertex 66.39786878516463 0.0 130.93595981193738
    vertex 84.30000000000005 9.600000000000001 142.89778146291866
    vertex 84.30000000000005 0.0 142.89778146291866
  endloop
endfacet
facet normal 0.6087614290087207 0.0 -0.7933533402912353
  outer loop
    vertex 66.39786878516463 9.600000000000001 130.93595981193738
    vertex 50.2102238166943 0.0 116.73977618330576
    vertex 50.2102238166943 9.600000000000001 116.73977618330576
  endloop
endfacet
facet normal 0.7071067811865472 0.0 -0.7071067811865479
  outer loop
    vertex 50.2102238166943 0.0 116.73977618330576
    vertex 66.39786878516463 9.600000000000001 130.93595981193738
    vertex 66.39786878516463 0.0 130.93595981193738
  endloop
endfacet
facet normal 1.0 1.5772711912353785e-15 2.4252949273547926e-14
  outer loop
    vertex 166.60000000000107 11.999999999999998 124.95000000000003
    vertex 166.6000000000001 9.600000000000001 164.95000000000002
    vertex 166.60000000000107 9.600000000000001 124.95000000000003
  endloop
endfacet
facet normal 1.0 1.5772711912353785e-15 2.4252949273547926e-14
  outer loop
    vertex 166.60000000000096 12.200000000000001 127.95000000000005
    vertex 166.60000000000014 11.999999999999998 161.95000000000002
    vertex 166.60000000000096 11.999999999999998 127.95000000000005
  endloop
endfacet
facet normal 1.0 1.5772711912353785e-15 2.4252949273547926e-14
  outer loop
    vertex 166.60000000000014 11.999999999999998 161.95000000000002
    vertex 166.60000000000096 12.200000000000001 127.95000000000005
    vertex 166.60000000000014 12.200000000000001 161.95000000000002
  endloop
endfacet
facet normal 1.0 1.5772711912353785e-15 2.4252949273547926e-14
  outer loop
    vertex 166.6000000000001 9.600000000000001 164.95000000000002
    vertex 166.60000000000002 0.0 167.35000000000002
    vertex 166.6000000000001 0.0 164.95000000000002
  endloop
endfacet
facet normal 1.0 1.5772711912353785e-15 2.4252949273547926e-14
  outer loop
    vertex 166.60000000000002 0.0 167.35000000000002
    vertex 166.6000000000001 9.600000000000001 164.95000000000002
    vertex 166.60000000000002 11.999999999999998 167.35000000000002
  endloop
endfacet
facet normal 1.0 1.5772711912353785e-15 2.4252949273547926e-14
  outer loop
    vertex 166.60000000000002 11.999999999999998 167.35000000000002
    vertex 166.6000000000001 9.600000000000001 164.95000000000002
    vertex 166.60000000000107 11.999999999999998 124.95000000000003
  endloop
endfacet
facet normal 1.0 1.5772711912353785e-15 2.4252949273547926e-14
  outer loop
    vertex 166.60000000000002 11.999999999999998 167.35000000000002
    vertex 166.60000000000107 11.999999999999998 124.95000000000003
    vertex 166.60000000000096 11.999999999999998 127.95000000000005
  endloop
endfacet
facet normal 1.0 1.5772711912353785e-15 2.4252949273547926e-14
  outer loop
    vertex 166.60000000000002 11.999999999999998 167.35000000000002
    vertex 166.60000000000096 11.999999999999998 127.95000000000005
    vertex 166.60000000000014 11.999999999999998 161.95000000000002
  endloop
endfacet
facet normal -0.0 -1.0 -0.0
  outer loop
    vertex 43.06597027282322 9.600000000000001 16.613563550618515
    vertex 1.9999999999999962 9.600000000000001 0.3499999999999999
    vertex 41.99999999999999 9.600000000000001 0.3499999999999999
  endloop
endfacet
facet normal -0.0 -1.0 -0.0
  outer loop
    vertex 1.9999999999999962 9.600000000000001 0.3499999999999999
    vertex 43.06597027282322 9.600000000000001 16.613563550618515
    vertex 3.4081758178708124 9.600000000000001 21.8346112394205
  endloop
endfacet
facet normal -0.0 -1.0 -0.0
  outer loop
    vertex 3.4081758178708124 9.600000000000001 21.8346112394205
    vertex 43.06597027282322 9.600000000000001 16.613563550618515
    vertex 46.24564204438213 9.600000000000001 32.59885301977425
  endloop
endfacet
facet normal -0.0 -1.0 -0.0
  outer loop
    vertex 3.4081758178708124 9.600000000000001 21.8346112394205
    vertex 46.24564204438213 9.600000000000001 32.59885301977425
    vertex 7.608608992819362 9.600000000000001 42.951614823874934
  endloop
endfacet
facet normal -0.0 -1.0 -0.0
  outer loop
    vertex 7.608608992819362 9.600000000000001 42.951614823874934
    vertex 46.24564204438213 9.600000000000001 32.59885301977425
    vertex 51.48461024909376 9.600000000000001 48.03235567269043
  endloop
endfacet
facet normal -0.0 -1.0 -0.0
  outer loop
    vertex 7.608608992819362 9.600000000000001 42.951614823874934
    vertex 51.48461024909376 9.600000000000001 48.03235567269043
    vertex 14.529428948642204 9.600000000000001 63.339692967293786
  endloop
endfacet
facet normal -0.0 -1.0 -0.0
  outer loop
    vertex 14.529428948642204 9.600000000000001 63.339692967293786
    vertex 51.48461024909376 9.600000000000001 48.03235567269043
    vertex 58.69323468845911 9.600000000000001 62.650000000000304
  endloop
endfacet
facet normal -0.0 -1.0 -0.0
  outer loop
    vertex 14.529428948642204 9.600000000000001 63.339692967293786
    vertex 58.69323468845911 9.600000000000001 62.650000000000304
    vertex 67.74817379971236 9.600000000000001 76.20167405448694
  endloop
endfacet
facet normal -0.0 -1.0 -0.0
  outer loop
    vertex 14.529428948642204 9.600000000000001 63.339692967293786
    vertex 67.74817379971236 9.600000000000001 76.20167405448694
    vertex 24.052218537081405 9.600000000000001 82.65000000000003
  endloop
endfacet
facet normal -0.0 -1.0 -0.0
  outer loop
    vertex 24.052218537081405 9.600000000000001 82.65000000000003
    vertex 67.74817379971236 9.600000000000001 76.20167405448694
    vertex 78.49449506415654 9.600000000000001 88.4555049358442
  endloop
endfacet
facet normal -0.0 -1.0 -0.0
  outer loop
    vertex 24.052218537081405 9.600000000000001 82.65000000000003
    vertex 78.49449506415654 9.600000000000001 88.4555049358442
    vertex 36.0140401880627 9.600000000000001 100.55213121483547
  endloop
endfacet
facet normal -0.0 -1.0 -0.0
  outer loop
    vertex 36.0140401880627 9.600000000000001 100.55213121483547
    vertex 78.49449506415654 9.600000000000001 88.4555049358442
    vertex 90.74832594551388 9.600000000000001 99.2018262002883
  endloop
endfacet
facet normal -0.0 -1.0 -0.0
  outer loop
    vertex 36.0140401880627 9.600000000000001 100.55213121483547
    vertex 90.74832594551388 9.600000000000001 99.2018262002883
    vertex 104.3000000000006 9.600000000000001 108.25676531154143
  endloop
endfacet
facet normal -0.0 -1.0 -0.0
  outer loop
    vertex 36.0140401880627 9.600000000000001 100.55213121483547
    vertex 104.3000000000006 9.600000000000001 108.25676531154143
    vertex 50.2102238166943 9.600000000000001 116.73977618330576
  endloop
endfacet
facet normal -0.0 -1.0 -0.0
  outer loop
    vertex 50.2102238166943 9.600000000000001 116.73977618330576
    vertex 104.3000000000006 9.600000000000001 108.25676531154143
    vertex 118.91764432731057 9.600000000000001 115.46538975090667
  endloop
endfacet
facet normal -0.0 -1.0 -0.0
  outer loop
    vertex 50.2102238166943 9.600000000000001 116.73977618330576
    vertex 118.91764432731057 9.600000000000001 115.46538975090667
    vertex 134.35114698022676 9.600000000000001 120.70435795561816
  endloop
endfacet
facet normal -0.0 -1.0 -0.0
  outer loop
    vertex 50.2102238166943 9.600000000000001 116.73977618330576
    vertex 134.35114698022676 9.600000000000001 120.70435795561816
    vertex 66.39786878516463 9.600000000000001 130.93595981193738
  endloop
endfacet
facet normal -0.0 -1.0 -0.0
  outer loop
    vertex 66.39786878516463 9.600000000000001 130.93595981193738
    vertex 134.35114698022676 9.600000000000001 120.70435795561816
    vertex 150.33643644938255 9.600000000000001 123.88402972717694
  endloop
endfacet
facet normal -0.0 -1.0 -0.0
  outer loop
    vertex 66.39786878516463 9.600000000000001 130.93595981193738
    vertex 150.33643644938255 9.600000000000001 123.88402972717694
    vertex 166.60000000000107 9.600000000000001 124.95000000000003
  endloop
endfacet
facet normal -0.0 -1.0 -0.0
  outer loop
    vertex 66.39786878516463 9.600000000000001 130.93595981193738
    vertex 166.60000000000107 9.600000000000001 124.95000000000003
    vertex 166.6000000000001 9.600000000000001 164.95000000000002
  endloop
endfacet
facet normal -0.0 -1.0 -0.0
  outer loop
    vertex 66.39786878516463 9.600000000000001 130.93595981193738
    vertex 166.6000000000001 9.600000000000001 164.95000000000002
    vertex 84.30000000000005 9.600000000000001 142.89778146291866
  endloop
endfacet
facet normal -0.0 -1.0 -0.0
  outer loop
    vertex 84.30000000000005 9.600000000000001 142.89778146291866
    vertex 166.6000000000001 9.600000000000001 164.95000000000002
    vertex 103.6103070327063 9.600000000000001 152.42057105135785
  endloop
endfacet
facet normal -0.0 -1.0 -0.0
  outer loop
    vertex 103.6103070327063 9.600000000000001 152.42057105135785
    vertex 166.6000000000001 9.600000000000001 164.95000000000002
    vertex 123.99838517612517 9.600000000000001 159.34139100718068
  endloop
endfacet
facet normal -0.0 -1.0 -0.0
  outer loop
    vertex 123.99838517612517 9.600000000000001 159.34139100718068
    vertex 166.6000000000001 9.600000000000001 164.95000000000002
    vertex 145.1153887605796 9.600000000000001 163.54182418212923
  endloop
endfacet
facet normal 3.831301030469498e-16 1.0 -3.116028954507383e-16
  outer loop
    vertex 4.000000000000003 11.999999999999998 11.3
    vertex 39.999999999999986 11.999999999999998 0.0
    vertex 4.000000000000003 11.999999999999998 0.0
  endloop
endfacet
facet normal 3.831301030469498e-16 1.0 -3.116028954507383e-16
  outer loop
    vertex 39.999999999999986 11.999999999999998 0.0
    vertex 4.000000000000003 11.999999999999998 11.3
    vertex 39.999999999999986 11.999999999999998 11.3
  endloop
endfacet
facet normal 3.831301030469498e-16 1.0 -3.116028954507383e-16
  outer loop
    vertex 39.999999999999986 11.999999999999998 11.3
    vertex 4.000000000000003 11.999999999999998 11.3
    vertex 0.3177009178268379 12.00000000000002 11.300000000000002
  endloop
endfacet
facet normal 3.831301030469498e-16 1.0 -3.116028954507383e-16
  outer loop
    vertex 39.999999999999986 11.999999999999998 11.3
    vertex 0.3177009178268379 12.00000000000002 11.300000000000002
    vertex 45.11770091782685 11.999999999999998 11.3
  endloop
endfacet
facet normal 3.831301030469498e-16 1.0 -3.116028954507383e-16
  outer loop
    vertex 45.11770091782685 11.999999999999998 11.3
    vertex 0.3177009178268379 12.00000000000002 11.300000000000002
    vertex 45.44543794012037 11.999999999999998 16.30030068929039
  endloop
endfacet
facet normal 3.831301030469498e-16 1.0 -3.116028954507383e-16
  outer loop
    vertex 45.44543794012037 11.999999999999998 16.30030068929039
    vertex 0.3177009178268379 12.00000000000002 11.300000000000002
    vertex 1.0287081505736408 12.000000000000043 22.147874100748613
  endloop
endfacet
facet normal 3.831301030469498e-16 1.0 -3.116028954507383e-16
  outer loop
    vertex 45.44543794012037 11.999999999999998 16.30030068929039
    vertex 1.0287081505736408 12.000000000000043 22.147874100748613
    vertex 48.56386402747587 11.999999999999998 31.977687311528204
  endloop
endfacet
facet normal 3.831301030469498e-16 1.0 -3.116028954507383e-16
  outer loop
    vertex 48.56386402747587 11.999999999999998 31.977687311528204
    vertex 1.0287081505736408 12.000000000000043 22.147874100748613
    vertex 5.290387009725575 12.000000000000043 43.572780532120966
  endloop
endfacet
facet normal 3.831301030469498e-16 1.0 -3.116028954507383e-16
  outer loop
    vertex 48.56386402747587 11.999999999999998 31.977687311528204
    vertex 5.290387009725575 12.000000000000043 43.572780532120966
    vertex 53.70192112712083 11.999999999999998 47.11391543501421
  endloop
endfacet
facet normal 3.831301030469498e-16 1.0 -3.116028954507383e-16
  outer loop
    vertex 53.70192112712083 11.999999999999998 47.11391543501421
    vertex 5.290387009725575 12.000000000000043 43.572780532120966
    vertex 12.312118070615087 12.00000000000004 64.25813320497001
  endloop
endfacet
facet normal 3.831301030469498e-16 1.0 -3.116028954507383e-16
  outer loop
    vertex 53.70192112712083 11.999999999999998 47.11391543501421
    vertex 12.312118070615087 12.00000000000004 64.25813320497001
    vertex 60.771695657541756 11.999999999999998 61.450000000000294
  endloop
endfacet
facet normal 3.831301030469498e-16 1.0 -3.116028954507383e-16
  outer loop
    vertex 60.771695657541756 11.999999999999998 61.450000000000294
    vertex 12.312118070615087 12.00000000000004 64.25813320497001
    vertex 69.65222181641131 11.999999999999998 74.74064662486602
  endloop
endfacet
facet normal 3.831301030469498e-16 1.0 -3.116028954507383e-16
  outer loop
    vertex 69.65222181641131 11.999999999999998 74.74064662486602
    vertex 12.312118070615087 12.00000000000004 64.25813320497001
    vertex 21.97375756799871 12.000000000000037 83.85
  endloop
endfacet
facet normal 3.831301030469498e-16 1.0 -3.116028954507383e-16
  outer loop
    vertex 69.65222181641131 11.999999999999998 74.74064662486602
    vertex 21.97375756799871 12.000000000000037 83.85
    vertex 80.19155133900425 11.999999999999998 86.75844866099648
  endloop
endfacet
facet normal 3.831301030469498e-16 1.0 -3.116028954507383e-16
  outer loop
    vertex 80.19155133900425 11.999999999999998 86.75844866099648
    vertex 21.97375756799871 12.000000000000037 83.85
    vertex 34.10999217136369 12.000000000000034 102.01315864445634
  endloop
endfacet
facet normal 3.831301030469498e-16 1.0 -3.116028954507383e-16
  outer loop
    vertex 80.19155133900425 11.999999999999998 86.75844866099648
    vertex 34.10999217136369 12.000000000000034 102.01315864445634
    vertex 92.20935337513481 11.999999999999998 97.29777818358933
  endloop
endfacet
facet normal 3.831301030469498e-16 1.0 -3.116028954507383e-16
  outer loop
    vertex 92.20935337513481 11.999999999999998 97.29777818358933
    vertex 34.10999217136369 12.000000000000034 102.01315864445634
    vertex 105.5000000000006 11.999999999999998 106.17830434245879
  endloop
endfacet
facet normal 3.831301030469498e-16 1.0 -3.116028954507383e-16
  outer loop
    vertex 105.5000000000006 11.999999999999998 106.17830434245879
    vertex 34.10999217136369 12.000000000000034 102.01315864445634
    vertex 48.51316754184653 12.000000000000032 118.43683245815345
  endloop
endfacet
facet normal 3.831301030469498e-16 1.0 -3.116028954507383e-16
  outer loop
    vertex 105.5000000000006 11.999999999999998 106.17830434245879
    vertex 48.51316754184653 12.000000000000032 118.43683245815345
    vertex 119.83608456498676 11.999999999999998 113.24807887287957
  endloop
endfacet
facet normal 3.831301030469498e-16 1.0 -3.116028954507383e-16
  outer loop
    vertex 119.83608456498676 11.999999999999998 113.24807887287957
    vertex 48.51316754184653 12.000000000000032 118.43683245815345
    vertex 134.9723126884728 11.999999999999998 118.3861359725244
  endloop
endfacet
facet normal 3.831301030469498e-16 1.0 -3.116028954507383e-16
  outer loop
    vertex 134.9723126884728 11.999999999999998 118.3861359725244
    vertex 48.51316754184653 12.000000000000032 118.43683245815345
    vertex 150.64969931071064 11.999999999999998 121.5045620598798
  endloop
endfacet
facet normal 3.831301030469498e-16 1.0 -3.116028954507383e-16
  outer loop
    vertex 150.64969931071064 11.999999999999998 121.5045620598798
    vertex 48.51316754184653 12.000000000000032 118.43683245815345
    vertex 64.9368413555436 12.000000000000027 132.8400078286363
  endloop
endfacet
facet normal 3.831301030469498e-16 1.0 -3.116028954507383e-16
  outer loop
    vertex 150.64969931071064 11.999999999999998 121.5045620598798
    vertex 64.9368413555436 12.000000000000027 132.8400078286363
    vertex 166.60000000000107 11.999999999999998 122.55000000000004
  endloop
endfacet
facet normal 3.831301030469498e-16 1.0 -3.116028954507383e-16
  outer loop
    vertex 166.60000000000107 11.999999999999998 122.55000000000004
    vertex 64.9368413555436 12.000000000000027 132.8400078286363
    vertex 166.60000000000107 11.999999999999998 124.95000000000003
  endloop
endfacet
facet normal 3.831301030469498e-16 1.0 -3.116028954507383e-16
  outer loop
    vertex 166.60000000000107 11.999999999999998 124.95000000000003
    vertex 64.9368413555436 12.000000000000027 132.8400078286363
    vertex 161.60000000000093 11.999999999999998 127.94999999999992
  endloop
endfacet
facet normal 3.831301030469498e-16 1.0 -3.116028954507383e-16
  outer loop
    vertex 161.60000000000093 11.999999999999998 127.94999999999992
    vertex 64.9368413555436 12.000000000000027 132.8400078286363
    vertex 161.60000000000014 11.999999999999998 161.9499999999999
  endloop
endfacet
facet normal 3.831301030469498e-16 1.0 -3.116028954507383e-16
  outer loop
    vertex 161.60000000000014 11.999999999999998 161.9499999999999
    vertex 64.9368413555436 12.000000000000027 132.8400078286363
    vertex 83.09999999999997 12.00000000000002 144.97624243200127
  endloop
endfacet
facet normal 3.831301030469498e-16 1.0 -3.116028954507383e-16
  outer loop
    vertex 161.60000000000014 11.999999999999998 161.9499999999999
    vertex 83.09999999999997 12.00000000000002 144.97624243200127
    vertex 102.69186679502998 12.000000000000014 154.63788192938492
  endloop
endfacet
facet normal 3.831301030469498e-16 1.0 -3.116028954507383e-16
  outer loop
    vertex 161.60000000000014 11.999999999999998 161.9499999999999
    vertex 102.69186679502998 12.000000000000014 154.63788192938492
    vertex 123.37721946787902 12.000000000000009 161.6596129902744
  endloop
endfacet
facet normal 3.831301030469498e-16 1.0 -3.116028954507383e-16
  outer loop
    vertex 161.60000000000014 11.999999999999998 161.9499999999999
    vertex 123.37721946787902 12.000000000000009 161.6596129902744
    vertex 144.80212589925137 12.000000000000004 165.92129184942635
  endloop
endfacet
facet normal 3.831301030469498e-16 1.0 -3.116028954507383e-16
  outer loop
    vertex 161.60000000000014 11.999999999999998 161.9499999999999
    vertex 144.80212589925137 12.000000000000004 165.92129184942635
    vertex 166.60000000000014 11.999999999999998 161.95000000000002
  endloop
endfacet
facet normal 3.831301030469498e-16 1.0 -3.116028954507383e-16
  outer loop
    vertex 166.60000000000014 11.999999999999998 161.95000000000002
    vertex 144.80212589925137 12.000000000000004 165.92129184942635
    vertex 166.60000000000002 11.999999999999998 167.35000000000002
  endloop
endfacet
facet normal 3.831301030469498e-16 1.0 -3.116028954507383e-16
  outer loop
    vertex 166.60000000000096 11.999999999999998 127.95000000000005
    vertex 166.60000000000107 11.999999999999998 124.95000000000003
    vertex 161.60000000000093 11.999999999999998 127.94999999999992
  endloop
endfacet
facet normal 1.0 0.0 0.0
  outer loop
    vertex 45.59999999999999 17.799999999999997 0.3499999999999999
    vertex 45.59999999999999 11.999999999999998 11.3
    vertex 45.59999999999999 11.999999999999998 0.3499999999999999
  endloop
endfacet
facet normal 1.0 0.0 0.0
  outer loop
    vertex 45.59999999999999 11.999999999999998 11.3
    vertex 45.59999999999999 17.799999999999997 0.3499999999999999
    vertex 45.59999999999999 17.799999999999997 11.3
  endloop
endfacet
facet normal -0.0 -1.0 -0.0
  outer loop
    vertex 45.59999999999999 11.999999999999998 11.3
    vertex 44.399999999999984 11.999999999999998 0.35000000000000114
    vertex 45.59999999999999 11.999999999999998 0.3499999999999999
  endloop
endfacet
facet normal -0.0 -1.0 -0.0
  outer loop
    vertex 44.399999999999984 11.999999999999998 0.35000000000000114
    vertex 45.59999999999999 11.999999999999998 11.3
    vertex 45.11770091782685 11.999999999999998 11.3
  endloop
endfacet
facet normal -1.0 0.0 0.0
  outer loop
    vertex -1.5999999999999999 17.799999999999997 11.3
    vertex -1.5999999999999999 11.999999999999998 0.34999999999999964
    vertex -1.5999999999999999 11.999999999999998 11.3
  endloop
endfacet
facet normal -1.0 0.0 0.0
  outer loop
    vertex -1.5999999999999999 11.999999999999998 0.34999999999999964
    vertex -1.5999999999999999 17.799999999999997 11.3
    vertex -1.5999999999999999 17.799999999999997 0.3499999999999999
  endloop
endfacet
endsolid courbe 2
